<svg class="animated" id="freepik_stories-instruction-manual" xmlns="http://www.w3.org/2000/svg" xmlns:xlink="http://www.w3.org/1999/xlink" viewBox="0 0 500 500" version="1.1" xmlns:svgjs="http://svgjs.com/svgjs"><style>svg#freepik_stories-instruction-manual:not(.animated) .animable {opacity: 0;}svg#freepik_stories-instruction-manual.animated #freepik--background-simple--inject-61 {animation: 2s 1 forwards linear slideUp,6s Infinite  linear floating;animation-delay: 0s,2s;}svg#freepik_stories-instruction-manual.animated #freepik--Plants--inject-61 {animation: 6s Infinite  linear heartbeat;animation-delay: 0s;}svg#freepik_stories-instruction-manual.animated #freepik--Manual--inject-61 {animation: 2s 1 forwards linear slideLeft,6s Infinite  linear floating;animation-delay: 0s,2s;}svg#freepik_stories-instruction-manual.animated #freepik--Content--inject-61 {animation: 2s 1 forwards linear slideLeft,6s Infinite  linear floating;animation-delay: 0s,2s;}            @keyframes slideUp {                0% {                    opacity: 0;                    transform: translateY(30px);                }                100% {                    opacity: 1;                    transform: inherit;                }            }                    @keyframes floating {                0% {                    opacity: 1;                    transform: translateY(0px);                }                50% {                    transform: translateY(-10px);                }                100% {                    opacity: 1;                    transform: translateY(0px);                }            }                    @keyframes heartbeat {                0% {                    transform: scale(1);                }                10% {                    transform: scale(1.1);                }                30% {                    transform: scale(1);                }                40% {                    transform: scale(1);                }                50% {                    transform: scale(1.1);                }                60% {                    transform: scale(1);                }                100% {                    transform: scale(1);                }            }                    @keyframes slideLeft {                0% {                    opacity: 0;                    transform: translateX(-30px);                }                100% {                    opacity: 1;                    transform: translateX(0);                }            }        </style><g id="freepik--background-simple--inject-61" class="animable" style="transform-origin: 242.213px 256.117px;"><path d="M464.16,290.26c-1.68,28.89-7.53,56.32-17.39,79.34a145.62,145.62,0,0,1-14.29,26.11,105.34,105.34,0,0,1-15.35,17.7c-1.85,1.69-3.75,3.34-5.72,5a178,178,0,0,1-18.88,13.66q-5.92,3.74-12.44,7.21c-1,.51-1.91,1-2.87,1.49l-.23.12c-.93.47-1.85.92-2.79,1.36s-1.69.79-2.53,1.16l-1,.46c-.7.31-1.39.61-2.09.89l-.27.12c-.94.4-1.9.78-2.85,1.13,0,0,0,0,0,0-.88.34-1.76.66-2.64,1l-.69.24c-.75.27-1.51.53-2.27.78l-.25.08c-.82.28-1.66.54-2.48.79s-1.52.44-2.27.65-1.23.34-1.85.51c-1.5.39-3,.76-4.48,1.09l-1.75.37-1.62.33c-.93.18-1.84.34-2.75.48-.72.13-1.43.23-2.14.33s-1.5.21-2.25.3l-2.22.26-2.23.21-2.21.16-2.22.12c-.65,0-1.3,0-1.95.06l-.66,0c-.61,0-1.2,0-1.8,0-1.46,0-2.92,0-4.38-.07l-1.55-.06-1-.05-1.52-.1c-1.09-.08-2.17-.17-3.25-.28s-2.35-.24-3.52-.4l-1.61-.22-1-.15-1.64-.26c-2.2-.37-4.37-.8-6.53-1.28l-1.92-.45c-.67-.15-1.31-.32-2-.49l-.13,0c-1.4-.36-2.78-.74-4.16-1.15-1.15-.34-2.29-.69-3.42-1.06-.79-.26-1.56-.51-2.33-.78-.61-.21-1.23-.42-1.83-.65q-6.41-2.29-12.57-5.21c-.6-.27-1.2-.56-1.79-.85l-.39-.2c-.58-.28-1.15-.55-1.72-.84h0c-1.29-.64-2.57-1.32-3.85-2l-.89-.49c-.55-.29-1.09-.6-1.64-.9q-4-2.26-7.91-4.73-1-.61-2-1.26c-.78-.5-1.56-1-2.32-1.53s-1.54-1-2.3-1.57-1.28-.89-1.92-1.34c-2.82-2-5.6-4.1-8.31-6.25-.58-.45-1.14-.91-1.71-1.37l-1.7-1.39c-.57-.46-1.13-.92-1.68-1.4s-1.11-.94-1.66-1.41-1.09-.93-1.62-1.4l-1.76-1.56c-.84-.75-1.67-1.52-2.51-2.28-1.27-1.17-2.52-2.37-3.77-3.56-.52-.5-1-1-1.56-1.52l-1.55-1.53c-1.31-1.31-2.61-2.65-3.89-4l-.09-.1c-1.89-2-3.73-4-5.53-6-.07-.09-.15-.16-.21-.24-1.15-1.29-2.29-2.59-3.39-3.89l-1.91-2.25a54.32,54.32,0,0,0-7.09-7.06c-.31-.27-.64-.53-1-.79l-1-.77c-.59-.45-1.19-.88-1.79-1.29-.31-.21-.6-.42-.91-.62l-1-.66-1-.63-.65-.38c-.28-.18-.58-.35-.86-.51l-1.08-.6-1.62-.85c-.34-.17-.69-.33-1-.51-1.47-.71-3-1.37-4.53-2l-1-.38a105.88,105.88,0,0,0-25.54-5.79c-.42-.06-.85-.1-1.29-.14-2.57-.28-5.19-.51-7.82-.69-1.2-.09-2.39-.17-3.6-.23l-1.7-.09-2.66-.12c-1.33-.06-2.67-.11-4-.15l-1.35,0-.31,0c-.79,0-1.57-.05-2.37-.06l-4-.1-3.37-.08-4.18-.08h-.31l-3.87-.1-2.78-.08-2.65-.07h-.2l-2.67-.09c-4.77-.2-9.49-.48-14.09-.91l-.54-.05-1.37-.14c-2.88-.3-5.72-.67-8.49-1.13l-2.37-.41a95.63,95.63,0,0,1-10.52-2.57c-.39-.12-.78-.24-1.16-.38-1.16-.38-2.31-.78-3.42-1.21-.38-.14-.76-.29-1.13-.45-1-.39-1.9-.8-2.82-1.22L55,351.5c-1.35-.65-2.68-1.34-4-2.09-.54-.31-1.06-.62-1.59-1l-.28-.18-.93-.61c-.61-.41-1.22-.83-1.81-1.27l-.55-.42-.72-.53-.93-.75c-.42-.34-.82-.7-1.23-1.05s-1-.93-1.55-1.42-1.12-1.09-1.67-1.67l-.81-.87-.78-.89c-.3-.34-.59-.68-.87-1s-.44-.55-.67-.84-.49-.63-.74-1c-.49-.65-1-1.32-1.43-2l-.16-.24c-.34-.52-.69-1.06-1-1.6l-.08-.13-.42-.7c-.12-.19-.23-.38-.34-.59s-.4-.7-.59-1.05-.38-.71-.57-1.08-.32-.61-.46-.92-.43-.87-.64-1.32c-.52-1.11-1-2.22-1.49-3.35,0,0,0,0,0,0a.54.54,0,0,0-.05-.11c-.34-.82-.68-1.63-1-2.45a2.18,2.18,0,0,1-.09-.23c-.33-.83-.65-1.66-.95-2.51s-.65-1.77-.95-2.67-.6-1.79-.88-2.69c-.56-1.8-1.08-3.61-1.54-5.43q-.28-1.11-.54-2.22c-.11-.39-.19-.8-.28-1.22-.15-.62-.28-1.25-.4-1.89a1.36,1.36,0,0,1-.06-.29c-.18-.88-.35-1.77-.5-2.66s-.32-1.85-.46-2.79-.27-1.87-.39-2.81-.22-1.87-.31-2.81c-.08-.73-.15-1.48-.2-2.22,0-.33,0-.67-.08-1-.05-.72-.1-1.44-.13-2.17a3.25,3.25,0,0,1,0-.55c0-.48-.06-1-.06-1.46q-.06-1-.06-2c0-.77,0-1.57,0-2.36s0-1.33,0-2c0-.26,0-.52,0-.79,0-.66,0-1.31.07-2,0-.33,0-.69,0-1,0-.61.06-1.23.11-1.83l.06-.95c0-.71.1-1.41.17-2.11,0-.27,0-.54.08-.81.08-.87.17-1.72.27-2.58a.34.34,0,0,1,0-.13c.11-1,.23-1.94.37-2.92.1-.77.22-1.53.34-2.31.2-1.2.4-2.41.63-3.62.13-.73.27-1.43.41-2.16.54-2.67,1.17-5.37,1.89-8.08.18-.69.36-1.38.55-2.07,1.07-3.88,2.33-7.79,3.75-11.71l.55-1.47c.2-.5.4-1,.59-1.52.47-1.25,1-2.51,1.48-3.77s1-2.46,1.57-3.69a1.67,1.67,0,0,0,.08-.2c.47-1.07,1-2.14,1.45-3.21.09-.21.19-.42.29-.63.53-1.15,1.07-2.3,1.63-3.44l.09-.19c.58-1.16,1.17-2.34,1.77-3.51.17-.36.35-.69.54-1,.35-.69.7-1.38,1.08-2.06s.66-1.24,1-1.87.8-1.45,1.21-2.17c.85-1.52,1.72-3,2.62-4.53a19.44,19.44,0,0,1,.23-.36c.71-1.2,1.43-2.39,2.18-3.58s1.49-2.38,2.27-3.58,1.55-2.39,2.35-3.58,1.62-2.39,2.46-3.59,1.61-2.31,2.45-3.47a.62.62,0,0,0,.08-.12c.87-1.19,1.74-2.39,2.64-3.58s1.79-2.4,2.72-3.59c.78-1,1.56-2,2.36-3l.74-.92c.85-1.07,1.72-2.16,2.61-3.23s1.65-2,2.5-3c.21-.26.44-.51.66-.78,1-1.12,1.92-2.25,2.9-3.37s2-2.22,3-3.33c.16-.2.34-.39.51-.58,1-1.09,2-2.17,3-3.26s1.86-2,2.8-3c.38-.42.77-.83,1.17-1.24,1-1,2-2.05,3-3.06s2.23-2.27,3.36-3.4q13.57-13.59,29.69-27C175.93,67,277.14,47.05,343.66,65,431.49,88.66,469.59,197,464.16,290.26Z" style="fill: rgb(0, 255, 136); transform-origin: 242.213px 256.117px;" id="elg6atwcqijmn" class="animable"></path><g id="elu3f1e75h71"><path d="M464.16,290.26c-1.68,28.89-7.53,56.32-17.39,79.34a145.62,145.62,0,0,1-14.29,26.11,105.34,105.34,0,0,1-15.35,17.7c-1.85,1.69-3.75,3.34-5.72,5a178,178,0,0,1-18.88,13.66q-5.92,3.74-12.44,7.21c-1,.51-1.91,1-2.87,1.49l-.23.12c-.93.47-1.85.92-2.79,1.36s-1.69.79-2.53,1.16l-1,.46c-.7.31-1.39.61-2.09.89l-.27.12c-.94.4-1.9.78-2.85,1.13,0,0,0,0,0,0-.88.34-1.76.66-2.64,1l-.69.24c-.75.27-1.51.53-2.27.78l-.25.08c-.82.28-1.66.54-2.48.79s-1.52.44-2.27.65-1.23.34-1.85.51c-1.5.39-3,.76-4.48,1.09l-1.75.37-1.62.33c-.93.18-1.84.34-2.75.48-.72.13-1.43.23-2.14.33s-1.5.21-2.25.3l-2.22.26-2.23.21-2.21.16-2.22.12c-.65,0-1.3,0-1.95.06l-.66,0c-.61,0-1.2,0-1.8,0-1.46,0-2.92,0-4.38-.07l-1.55-.06-1-.05-1.52-.1c-1.09-.08-2.17-.17-3.25-.28s-2.35-.24-3.52-.4l-1.61-.22-1-.15-1.64-.26c-2.2-.37-4.37-.8-6.53-1.28l-1.92-.45c-.67-.15-1.31-.32-2-.49l-.13,0c-1.4-.36-2.78-.74-4.16-1.15-1.15-.34-2.29-.69-3.42-1.06-.79-.26-1.56-.51-2.33-.78-.61-.21-1.23-.42-1.83-.65q-6.41-2.29-12.57-5.21c-.6-.27-1.2-.56-1.79-.85l-.39-.2c-.58-.28-1.15-.55-1.72-.84h0c-1.29-.64-2.57-1.32-3.85-2l-.89-.49c-.55-.29-1.09-.6-1.64-.9q-4-2.26-7.91-4.73-1-.61-2-1.26c-.78-.5-1.56-1-2.32-1.53s-1.54-1-2.3-1.57-1.28-.89-1.92-1.34c-2.82-2-5.6-4.1-8.31-6.25-.58-.45-1.14-.91-1.71-1.37l-1.7-1.39c-.57-.46-1.13-.92-1.68-1.4s-1.11-.94-1.66-1.41-1.09-.93-1.62-1.4l-1.76-1.56c-.84-.75-1.67-1.52-2.51-2.28-1.27-1.17-2.52-2.37-3.77-3.56-.52-.5-1-1-1.56-1.52l-1.55-1.53c-1.31-1.31-2.61-2.65-3.89-4l-.09-.1c-1.89-2-3.73-4-5.53-6-.07-.09-.15-.16-.21-.24-1.15-1.29-2.29-2.59-3.39-3.89l-1.91-2.25a54.32,54.32,0,0,0-7.09-7.06c-.31-.27-.64-.53-1-.79l-1-.77c-.59-.45-1.19-.88-1.79-1.29-.31-.21-.6-.42-.91-.62l-1-.66-1-.63-.65-.38c-.28-.18-.58-.35-.86-.51l-1.08-.6-1.62-.85c-.34-.17-.69-.33-1-.51-1.47-.71-3-1.37-4.53-2l-1-.38a105.88,105.88,0,0,0-25.54-5.79c-.42-.06-.85-.1-1.29-.14-2.57-.28-5.19-.51-7.82-.69-1.2-.09-2.39-.17-3.6-.23l-1.7-.09-2.66-.12c-1.33-.06-2.67-.11-4-.15l-1.35,0-.31,0c-.79,0-1.57-.05-2.37-.06l-4-.1-3.37-.08-4.18-.08h-.31l-3.87-.1-2.78-.08-2.65-.07h-.2l-2.67-.09c-4.77-.2-9.49-.48-14.09-.91l-.54-.05-1.37-.14c-2.88-.3-5.72-.67-8.49-1.13l-2.37-.41a95.63,95.63,0,0,1-10.52-2.57c-.39-.12-.78-.24-1.16-.38-1.16-.38-2.31-.78-3.42-1.21-.38-.14-.76-.29-1.13-.45-1-.39-1.9-.8-2.82-1.22L55,351.5c-1.35-.65-2.68-1.34-4-2.09-.54-.31-1.06-.62-1.59-1l-.28-.18-.93-.61c-.61-.41-1.22-.83-1.81-1.27l-.55-.42-.72-.53-.93-.75c-.42-.34-.82-.7-1.23-1.05s-1-.93-1.55-1.42-1.12-1.09-1.67-1.67l-.81-.87-.78-.89c-.3-.34-.59-.68-.87-1s-.44-.55-.67-.84-.49-.63-.74-1c-.49-.65-1-1.32-1.43-2l-.16-.24c-.34-.52-.69-1.06-1-1.6l-.08-.13-.42-.7c-.12-.19-.23-.38-.34-.59s-.4-.7-.59-1.05-.38-.71-.57-1.08-.32-.61-.46-.92-.43-.87-.64-1.32c-.52-1.11-1-2.22-1.49-3.35,0,0,0,0,0,0a.54.54,0,0,0-.05-.11c-.34-.82-.68-1.63-1-2.45a2.18,2.18,0,0,1-.09-.23c-.33-.83-.65-1.66-.95-2.51s-.65-1.77-.95-2.67-.6-1.79-.88-2.69c-.56-1.8-1.08-3.61-1.54-5.43q-.28-1.11-.54-2.22c-.11-.39-.19-.8-.28-1.22-.15-.62-.28-1.25-.4-1.89a1.36,1.36,0,0,1-.06-.29c-.18-.88-.35-1.77-.5-2.66s-.32-1.85-.46-2.79-.27-1.87-.39-2.81-.22-1.87-.31-2.81c-.08-.73-.15-1.48-.2-2.22,0-.33,0-.67-.08-1-.05-.72-.1-1.44-.13-2.17a3.25,3.25,0,0,1,0-.55c0-.48-.06-1-.06-1.46q-.06-1-.06-2c0-.77,0-1.57,0-2.36s0-1.33,0-2c0-.26,0-.52,0-.79,0-.66,0-1.31.07-2,0-.33,0-.69,0-1,0-.61.06-1.23.11-1.83l.06-.95c0-.71.1-1.41.17-2.11,0-.27,0-.54.08-.81.08-.87.17-1.72.27-2.58a.34.34,0,0,1,0-.13c.11-1,.23-1.94.37-2.92.1-.77.22-1.53.34-2.31.2-1.2.4-2.41.63-3.62.13-.73.27-1.43.41-2.16.54-2.67,1.17-5.37,1.89-8.08.18-.69.36-1.38.55-2.07,1.07-3.88,2.33-7.79,3.75-11.71l.55-1.47c.2-.5.4-1,.59-1.52.47-1.25,1-2.51,1.48-3.77s1-2.46,1.57-3.69a1.67,1.67,0,0,0,.08-.2c.47-1.07,1-2.14,1.45-3.21.09-.21.19-.42.29-.63.53-1.15,1.07-2.3,1.63-3.44l.09-.19c.58-1.16,1.17-2.34,1.77-3.51.17-.36.35-.69.54-1,.35-.69.7-1.38,1.08-2.06s.66-1.24,1-1.87.8-1.45,1.21-2.17c.85-1.52,1.72-3,2.62-4.53a19.44,19.44,0,0,1,.23-.36c.71-1.2,1.43-2.39,2.18-3.58s1.49-2.38,2.27-3.58,1.55-2.39,2.35-3.58,1.62-2.39,2.46-3.59,1.61-2.31,2.45-3.47a.62.62,0,0,0,.08-.12c.87-1.19,1.74-2.39,2.64-3.58s1.79-2.4,2.72-3.59c.78-1,1.56-2,2.36-3l.74-.92c.85-1.07,1.72-2.16,2.61-3.23s1.65-2,2.5-3c.21-.26.44-.51.66-.78,1-1.12,1.92-2.25,2.9-3.37s2-2.22,3-3.33c.16-.2.34-.39.51-.58,1-1.09,2-2.17,3-3.26s1.86-2,2.8-3c.38-.42.77-.83,1.17-1.24,1-1,2-2.05,3-3.06s2.23-2.27,3.36-3.4q13.57-13.59,29.69-27C175.93,67,277.14,47.05,343.66,65,431.49,88.66,469.59,197,464.16,290.26Z" style="fill: rgb(255, 255, 255); opacity: 0.7; transform-origin: 242.213px 256.117px;" class="animable"></path></g></g><g id="freepik--Plants--inject-61" class="animable animator-active" style="transform-origin: 292.906px 239.08px;"><path d="M155.07,85.52c1.56,6.42,7.84,14.21,14,11.23a12.65,12.65,0,0,0,2.7-1.9c-2.36-4.36-1.51-10.46-5.26-13.61-2.06-1.74-6.71-4.68-9.27-4.13C153.78,77.84,154.23,82,155.07,85.52Z" style="fill: rgb(0, 255, 136); transform-origin: 163.122px 87.2238px;" id="elf915ajj6fi" class="animable"></path><path d="M169.35,102.35c3.83,3.8,8.1,6.37,14.86,3.62a9.28,9.28,0,0,0,3.79-3,5.57,5.57,0,0,0,1.09-4.48,5.18,5.18,0,0,0-4.47-3.69,14.52,14.52,0,0,0-6.13.7,20.5,20.5,0,0,0-5.94,2.95A14.71,14.71,0,0,0,169.35,102.35Z" style="fill: rgb(0, 255, 136); transform-origin: 179.269px 100.923px;" id="elet08h4ncky6" class="animable"></path><path d="M178.27,80.23c-4.09,10.86-9.25,21.11-13.42,31.64" style="fill: none; stroke: rgb(0, 255, 136); stroke-miterlimit: 10; transform-origin: 171.56px 96.05px;" id="elseqb472byps" class="animable"></path><path d="M141.64,119.13a17.43,17.43,0,0,0,6.27,8.89c2.85,2,6.13,2.66,8.91.76a14.91,14.91,0,0,0,2.41-2.22c-1.43-2-2.09-4.58-2.82-7s-1.51-4.82-3.42-6.41c-2.09-1.71-6.7-4.81-9.36-3.9C140.1,110.45,140.45,115.37,141.64,119.13Z" style="fill: rgb(0, 255, 136); transform-origin: 150.02px 119.498px;" id="els625ri0odv" class="animable"></path><path d="M158,134.23a16.54,16.54,0,0,0,7,3.12,13.17,13.17,0,0,0,8.26-1.78,8,8,0,0,0,3.17-3,4.16,4.16,0,0,0,.41-3.95,5.82,5.82,0,0,0-4.86-3.1,13.39,13.39,0,0,0-5.93,1.06,16.17,16.17,0,0,0-5.46,3.46A14.27,14.27,0,0,0,158,134.23Z" style="fill: rgb(0, 255, 136); transform-origin: 167.579px 131.47px;" id="elv6z7goohslb" class="animable"></path><path d="M164.85,111.87c-2.16,5.24-3.93,10.61-5.61,16-1.52,5.44-2.93,10.91-3.93,16.48" style="fill: none; stroke: rgb(0, 255, 136); stroke-miterlimit: 10; transform-origin: 160.08px 128.11px;" id="elnk4lvdyqfrf" class="animable"></path><path d="M133.9,155.83c3.4,6.27,11.86,11.43,16.74,6.65a12.8,12.8,0,0,0,2-2.62,13.83,13.83,0,0,1-2.3-3c-.63-1.09-1.19-2.26-1.78-3.4-1.16-2.28-2.44-4.44-4.63-5.62-2.39-1.28-7.46-3.43-9.94-2C130.77,147.71,132.09,152.44,133.9,155.83Z" style="fill: rgb(0, 255, 136); transform-origin: 142.336px 154.86px;" id="el8xr6kmpnkxd" class="animable"></path><path d="M152.72,167.66c4.93,2.34,9.74,3.2,15.23-1.37,2.37-1.91,3.9-5.29,2.27-7.76a5.65,5.65,0,0,0-5.32-2.14,13.68,13.68,0,0,0-5.67,2.18,17.82,17.82,0,0,0-4.71,4.45A13.22,13.22,0,0,0,152.72,167.66Z" style="fill: rgb(0, 255, 136); transform-origin: 161.809px 162.948px;" id="elhtyfjny3qxg" class="animable"></path><path d="M155.31,144.35a231.23,231.23,0,0,0-3.62,33.77" style="fill: none; stroke: rgb(0, 255, 136); stroke-miterlimit: 10; transform-origin: 153.5px 161.235px;" id="el23hpt7d3ewx" class="animable"></path><path d="M132.25,193.26a16.56,16.56,0,0,0,9.18,6.2c3.41.8,6.67.09,8.53-2.73a14,14,0,0,0,1.4-2.95c-2.09-1.31-3.62-3.47-5.13-5.63s-3-4.07-5.29-5c-2.52-.93-7.89-2.28-10.12-.6-1.47,1.14-1.74,2.7-1.36,4.57A15.29,15.29,0,0,0,132.25,193.26Z" style="fill: rgb(0, 255, 136); transform-origin: 140.333px 190.759px;" id="eli8ftq3r96kg" class="animable"></path><path d="M153.14,201.3c5.33,1.15,10.17.66,14.55-4.64,1.85-2.24,2.78-5.43.78-7.16a6.77,6.77,0,0,0-5.61-1,12.27,12.27,0,0,0-5.2,2.83,15.12,15.12,0,0,0-3.8,5.12A13,13,0,0,0,153.14,201.3Z" style="fill: rgb(0, 255, 136); transform-origin: 161.36px 195.043px;" id="elyvb7thahne" class="animable"></path><path d="M151.69,178.12l-.22,8.52a73,73,0,0,0,.41,8.34,123.47,123.47,0,0,0,2.85,16.61" style="fill: none; stroke: rgb(0, 255, 136); stroke-miterlimit: 10; transform-origin: 153.099px 194.855px;" id="ell795ugqzb2h" class="animable"></path><path d="M140.46,231.48A17.1,17.1,0,0,0,151,234.86c3.52-.17,6.41-1.76,7.45-5a15.47,15.47,0,0,0,.54-3.23c-4.79-1.35-8.22-6.72-13.11-7.08-2.69-.16-8.27,0-9.86,2.36C133.85,225.12,137.24,229.09,140.46,231.48Z" style="fill: rgb(0, 255, 136); transform-origin: 147.162px 227.184px;" id="el0w6ebdd2qc6b" class="animable"></path><path d="M162.73,233.37a16.44,16.44,0,0,0,7.35-2.07,13.91,13.91,0,0,0,5.36-6.39c1.19-2.62,1.2-5.92-1.29-7.26a6,6,0,0,0-5.71.53,13.22,13.22,0,0,0-4.13,4.35,15.74,15.74,0,0,0-2.21,6A12.72,12.72,0,0,0,162.73,233.37Z" style="fill: rgb(0, 255, 136); transform-origin: 169.146px 225.266px;" id="els2e36op0vy" class="animable"></path><path d="M154.73,211.59a107,107,0,0,0,12.51,31.08" style="fill: none; stroke: rgb(0, 255, 136); stroke-miterlimit: 10; transform-origin: 160.985px 227.13px;" id="elw17hi4dxf79" class="animable"></path><path d="M161.15,266.72a17.71,17.71,0,0,0,5.92.65,14.65,14.65,0,0,0,5.44-1.42c3.15-1.56,5.06-4.31,4.67-7.66a18.07,18.07,0,0,0-.8-3.16c-2.45.34-5-.45-7.52-1.17s-5-1.43-7.36-.8c-2.61.73-7.89,2.61-8.51,5.51C152.11,262.59,157.07,265.52,161.15,266.72Z" style="fill: rgb(0, 255, 136); transform-origin: 165.059px 260.159px;" id="eljxk8taxvcgd" class="animable"></path><path d="M182.54,259.58a16.38,16.38,0,0,0,5.59-5.17,16.21,16.21,0,0,0,2.31-7.83c.2-2.74-.72-5.3-3.32-5.42a6.8,6.8,0,0,0-5,2.72,12.83,12.83,0,0,0-2.34,5.44,13.74,13.74,0,0,0,.22,6.22A10.8,10.8,0,0,0,182.54,259.58Z" style="fill: rgb(0, 255, 136); transform-origin: 184.995px 250.37px;" id="els7keevbttq" class="animable"></path><path d="M167.24,242.67a73.23,73.23,0,0,0,10.28,13.06,57,57,0,0,0,13.26,9.79" style="fill: none; stroke: rgb(0, 255, 136); stroke-miterlimit: 10; transform-origin: 179.01px 254.095px;" id="elpl5iv448jub" class="animable"></path><path d="M195.35,289a19.46,19.46,0,0,0,9.35-5.11c2.42-2.52,3.56-5.64,2.11-8.7a13.22,13.22,0,0,0-1.87-2.71c-4.38,2.3-10.49,1.31-13.68,5a39.72,39.72,0,0,0-3.16,4.29c-1,1.67-1.56,3.51-1.13,4.9C187.6,290.08,191.74,289.73,195.35,289Z" style="fill: rgb(0, 255, 136); transform-origin: 197.137px 280.982px;" id="el161g557rpil" class="animable"></path><path d="M212.39,274.84c3.76-3.89,6.12-8.21,3.64-14.84-1-2.8-3.93-5.51-7.1-4.83a5.22,5.22,0,0,0-3.78,4.41,14.71,14.71,0,0,0,.6,6.13,19.41,19.41,0,0,0,2.82,6A13.77,13.77,0,0,0,212.39,274.84Z" style="fill: rgb(0, 255, 136); transform-origin: 211.053px 264.952px;" id="el2guw7yirro7" class="animable"></path><path d="M190.78,265.52c1.18.7,2.47,1.19,3.71,1.79l3.95,1.73,7.82,3.57c2.6,1.18,5.18,2.35,7.79,3.42,1.3.54,2.6,1.06,3.92,1.55s2.64.95,4,1.5" style="fill: none; stroke: rgb(0, 255, 136); stroke-miterlimit: 10; transform-origin: 206.375px 272.3px;" id="eloe3r3a0xa6b" class="animable"></path><path d="M224.74,302a26.07,26.07,0,0,0,4.55-1.55,24.39,24.39,0,0,0,4.55-2.61c2.73-2,4.77-4.75,3.89-8a12.19,12.19,0,0,0-1.41-3c-4.74,1.6-10.5.26-13.77,4-1.8,2-4.75,6.56-4.54,9.06a2.62,2.62,0,0,0,.72,1.78,2.59,2.59,0,0,0,1.56.75A14.17,14.17,0,0,0,224.74,302Z" style="fill: rgb(0, 255, 136); transform-origin: 227.968px 294.649px;" id="el9sx62ilsw4" class="animable"></path><path d="M243.33,290.86c2.38-1.36,4.53-2.74,5.93-4.85s2-4.88.87-8.93c-.9-3.4-4.42-7.25-8.12-7.13a4.61,4.61,0,0,0-4.4,3.88,16.2,16.2,0,0,0,.29,6.36,28.54,28.54,0,0,0,2.22,6.54A20.2,20.2,0,0,0,243.33,290.86Z" style="fill: rgb(0, 255, 136); transform-origin: 244.072px 280.404px;" id="ellpavxw408c" class="animable"></path><path d="M222,279.08a78.92,78.92,0,0,1,29,19.52" style="fill: none; stroke: rgb(0, 255, 136); stroke-miterlimit: 10; transform-origin: 236.5px 288.84px;" id="elbu6hvalrw9p" class="animable"></path><path d="M243.7,320.54a26.32,26.32,0,0,0,10,.11c3.39-.69,6.31-2.26,6.94-5.61a10.33,10.33,0,0,0,0-3.33c-4.94-.58-9.64-4.21-14.18-2.25-2.47,1-7.11,3.85-8,6.23C237.3,318.79,240.62,319.78,243.7,320.54Z" style="fill: rgb(0, 255, 136); transform-origin: 249.499px 314.98px;" id="eltmpyog7oiui" class="animable"></path><path d="M265.26,318.35c5.38-.44,10.49-1.29,12.05-9.58a12,12,0,0,0-.65-5.73,7.71,7.71,0,0,0-3.67-4.19,4.7,4.7,0,0,0-5.66,1.66,16.49,16.49,0,0,0-2.44,5.87,29.7,29.7,0,0,0-.77,6.87,11,11,0,0,0,.43,2.6C264.75,316.71,265,317.53,265.26,318.35Z" style="fill: rgb(0, 255, 136); transform-origin: 270.765px 308.421px;" id="ellu9f5kic1id" class="animable"></path><path d="M251,298.6a78.43,78.43,0,0,1,17.89,30.06" style="fill: none; stroke: rgb(0, 255, 136); stroke-miterlimit: 10; transform-origin: 259.945px 313.63px;" id="elfb2yq5qnc0f" class="animable"></path><path d="M251.69,339.45c5.49,3.28,15.19,3.57,17.68-2.17a10.93,10.93,0,0,0,.72-2.89c-4.62-1-7.86-5.47-12.72-5.49-2.66,0-8.17.51-9.77,2.7C245.47,334.58,248.69,337.67,251.69,339.45Z" style="fill: rgb(0, 255, 136); transform-origin: 258.501px 335.342px;" id="elxkdkc6halym" class="animable"></path><path d="M273.3,340.42c5.32-.21,10.13-1.46,13.21-7.6,1.31-2.6,1.34-6-1.12-7.16a6.31,6.31,0,0,0-5.67.69,14.35,14.35,0,0,0-4.18,4.15,16.43,16.43,0,0,0-2.46,5.52A11.36,11.36,0,0,0,273.3,340.42Z" style="fill: rgb(0, 255, 136); transform-origin: 280.177px 332.85px;" id="elxzdpxw246pn" class="animable"></path><path d="M266.2,321.34c2.58,9.39,6.51,18.48,9.95,27.88" style="fill: none; stroke: rgb(0, 255, 136); stroke-miterlimit: 10; transform-origin: 271.175px 335.28px;" id="elmxeaniqu2sg" class="animable"></path><path d="M261.2,366.06a23.78,23.78,0,0,0,9.37,2.55c3.3.14,6.7-.42,8.32-3.13a9.56,9.56,0,0,0,1.08-2.8c-4.42-1.64-7.48-5.93-12.33-5.66-2.65.13-8,1.07-9.7,3C255.77,362.5,258.51,364.58,261.2,366.06Z" style="fill: rgb(0, 255, 136); transform-origin: 268.563px 362.819px;" id="ell8nmh2hdx1" class="animable"></path><path d="M282.18,369.41a18.49,18.49,0,0,0,7.64.45c2.49-.53,4.78-2,6.76-5.73,1.65-3,1.86-7.29-.73-9.23a5.26,5.26,0,0,0-5.78.07,15.66,15.66,0,0,0-4.33,4.24,22.76,22.76,0,0,0-3,5.57A16,16,0,0,0,282.18,369.41Z" style="fill: rgb(0, 255, 136); transform-origin: 289.993px 362.068px;" id="elthgg52vuxma" class="animable"></path><path d="M276.15,349.22a132.43,132.43,0,0,1,4.48,14.46,57.3,57.3,0,0,1,1.31,7.61c.08,1.29.24,2.59.25,3.88l0,3.86" style="fill: none; stroke: rgb(0, 255, 136); stroke-miterlimit: 10; transform-origin: 279.17px 364.125px;" id="el7gkgv4m5y4k" class="animable"></path><path d="M261.51,387.32a25.36,25.36,0,0,0,7.13,6.58c2.86,1.75,6.15,2.67,8.82,1.06a10,10,0,0,0,2.25-2,33.46,33.46,0,0,1-3.7-5.88,9.84,9.84,0,0,0-4.78-4.51c-2.42-1-7.79-2.18-10-1.39-1.54.53-1.89,1.42-1.61,2.5A10.7,10.7,0,0,0,261.51,387.32Z" style="fill: rgb(0, 255, 136); transform-origin: 269.621px 388.358px;" id="ela0ni3r80fn5" class="animable"></path><path d="M278.66,399.89c4.29,3.15,8.67,5.74,15.17,1.91,2.71-1.63,5-5.45,3.58-8.51a5,5,0,0,0-5.16-2.64,16,16,0,0,0-5.81,1.9,23.24,23.24,0,0,0-5.23,3.56A14.63,14.63,0,0,0,278.66,399.89Z" style="fill: rgb(0, 255, 136); transform-origin: 288.252px 397.156px;" id="elndf3oxeh7jp" class="animable"></path><path d="M282.16,379a75.3,75.3,0,0,1-2.33,15.13,99.11,99.11,0,0,1-4.86,14.4" style="fill: none; stroke: rgb(0, 255, 136); stroke-miterlimit: 10; transform-origin: 278.565px 393.765px;" id="el1nmijfbyntg" class="animable"></path><path d="M252.52,410.51a23,23,0,0,0,5,8.47c2.34,2.48,5.23,4.13,8.28,3.3a9.18,9.18,0,0,0,2.68-1.32c-2.11-4.22-1.28-9.45-5-12.58-2-1.72-6.59-4.7-9.08-4.52C251.13,404.08,251.64,407.49,252.52,410.51Z" style="fill: rgb(0, 255, 136); transform-origin: 260.17px 413.175px;" id="elfhh7181d1oc" class="animable"></path><path d="M265.71,427.35c3.31,4.08,7.06,7.6,14.14,5.71,3-.78,6-3.65,5.49-6.75a5.36,5.36,0,0,0-4.25-3.93,16.23,16.23,0,0,0-6,.05,21.15,21.15,0,0,0-5.94,1.94A12.56,12.56,0,0,0,265.71,427.35Z" style="fill: rgb(0, 255, 136); transform-origin: 275.553px 427.855px;" id="elaiwwwmsze7" class="animable"></path><path d="M275,408.56a132.65,132.65,0,0,1-14.88,26.3" style="fill: none; stroke: rgb(0, 255, 136); stroke-miterlimit: 10; transform-origin: 267.56px 421.71px;" id="elfcwinh8rxs" class="animable"></path><path d="M314.22,411.43c-7.23.6-16.85-3.95-16.05-10.92a12.6,12.6,0,0,1,.91-3.23c5.08,1.23,10.7-1.62,15.47.72,2.59,1.34,7.71,4.51,8.06,7.5C323.05,409.52,318.15,411.17,314.22,411.43Z" style="fill: rgb(0, 255, 136); transform-origin: 310.38px 404.263px;" id="elymxt90c5jwm" class="animable"></path><path d="M292.58,401.67c-5-2.88-9-6.54-8.6-14.16.17-3.21,2-6.58,5-6.53,2,0,4,1.61,5.12,3.5a14.53,14.53,0,0,1,1.79,6.2,17.83,17.83,0,0,1-.66,6.73A13.57,13.57,0,0,1,292.58,401.67Z" style="fill: rgb(0, 255, 136); transform-origin: 289.96px 391.325px;" id="eln64xxjtmjc" class="animable"></path><path d="M333.38,392.65c-7.23.6-16.86-3.95-16.06-10.92a13.1,13.1,0,0,1,.92-3.24c5.08,1.24,10.7-1.61,15.46.73,2.59,1.33,7.72,4.51,8.07,7.5C342.21,390.74,337.3,392.39,333.38,392.65Z" style="fill: rgb(0, 255, 136); transform-origin: 329.535px 385.483px;" id="el29xm0lsi8yp" class="animable"></path><path d="M311.74,382.89c-5.05-2.88-9-6.55-8.61-14.16.17-3.21,2-6.59,5-6.53,2,0,4,1.61,5.12,3.5a14.73,14.73,0,0,1,1.79,6.2,17.85,17.85,0,0,1-.67,6.73A13.36,13.36,0,0,1,311.74,382.89Z" style="fill: rgb(0, 255, 136); transform-origin: 309.109px 372.545px;" id="ellyehsaetya" class="animable"></path><path d="M352.61,372.21c-7.24.6-16.86-3.95-16.06-10.92a12.69,12.69,0,0,1,.92-3.24c5.08,1.24,10.7-1.61,15.46.73,2.59,1.33,7.72,4.51,8.07,7.5C361.43,370.3,356.53,371.94,352.61,372.21Z" style="fill: rgb(0, 255, 136); transform-origin: 348.765px 365.043px;" id="el3j4qjqmqw91" class="animable"></path><path d="M331,362.45c-5.05-2.88-9-6.55-8.61-14.16.17-3.22,2-6.59,5-6.53,2,0,4,1.6,5.13,3.5a14.58,14.58,0,0,1,1.78,6.2,17.68,17.68,0,0,1-.66,6.73A13.36,13.36,0,0,1,331,362.45Z" style="fill: rgb(0, 255, 136); transform-origin: 328.371px 352.105px;" id="elvwm88xb9ze" class="animable"></path><path d="M366.58,353.84c-7.24.6-16.86-3.95-16.06-10.92a12.61,12.61,0,0,1,.92-3.23c5.08,1.23,10.7-1.62,15.46.72,2.59,1.34,7.72,4.51,8.07,7.5C375.4,351.93,370.5,353.58,366.58,353.84Z" style="fill: rgb(0, 255, 136); transform-origin: 362.735px 346.673px;" id="el0b0zwxfw1m3g" class="animable"></path><path d="M344.94,344.08c-5.05-2.88-9-6.54-8.61-14.16.17-3.21,2-6.58,5-6.53,2,0,4,1.61,5.13,3.5a14.67,14.67,0,0,1,1.78,6.2,17.64,17.64,0,0,1-.66,6.73A13.36,13.36,0,0,1,344.94,344.08Z" style="fill: rgb(0, 255, 136); transform-origin: 342.312px 333.735px;" id="el2fae6j47uf1" class="animable"></path><path d="M378.08,316.86c-5.78,4.39-16.34,5.71-19.41-.6a12.93,12.93,0,0,1-1-3.22c5-1.68,8.16-7.11,13.44-7.69,2.9-.26,8.93-.34,10.83,2C384.5,310.51,381.25,314.53,378.08,316.86Z" style="fill: rgb(0, 255, 136); transform-origin: 370.266px 312.9px;" id="elstnwyi06bde" class="animable"></path><path d="M354.59,320.24c-5.81.28-11.12-.69-14.87-7.33-1.58-2.8-1.88-6.61.75-8.21,1.72-1.06,4.25-.8,6.2.2a14.58,14.58,0,0,1,4.83,4.27,17.75,17.75,0,0,1,3.05,6A13.31,13.31,0,0,1,354.59,320.24Z" style="fill: rgb(0, 255, 136); transform-origin: 346.663px 312.15px;" id="el9ejte5h2929" class="animable"></path><path d="M284.83,409c8.68-7.53,17.63-14.64,25.21-22.87,0,0,53.94-49.26,45.08-72.83" style="fill: none; stroke: rgb(0, 255, 136); stroke-miterlimit: 10; transform-origin: 320.467px 361.15px;" id="elaz2cfesmgvu" class="animable"></path><path d="M288.93,433.67a23.49,23.49,0,0,1-10.6-2.52c-3.32-1.7-5.87-4.25-5.75-7.77a11,11,0,0,1,.71-3.32c5.16.91,10.64-1.75,15.17,1,2.47,1.51,7.14,5.2,7.57,8C296.6,432.78,292.46,433.56,288.93,433.67Z" style="fill: rgb(0, 255, 136); transform-origin: 284.329px 426.722px;" id="elpsb4okd8yz" class="animable"></path><path d="M267.09,425.15c-5.36-2.25-10.14-5-9.95-13.33a10.29,10.29,0,0,1,1.64-5.17,5.9,5.9,0,0,1,4.16-2.79,5.74,5.74,0,0,1,5.37,3.26,16.49,16.49,0,0,1,1.63,6.42,23.46,23.46,0,0,1-.51,7A17.09,17.09,0,0,1,267.09,425.15Z" style="fill: rgb(0, 255, 136); transform-origin: 263.572px 414.503px;" id="elenrhylhawm" class="animable"></path><path d="M284.83,409c-8.68,7.5-17.27,15.44-24.3,24.85" style="fill: none; stroke: rgb(0, 255, 136); stroke-miterlimit: 10; transform-origin: 272.68px 421.425px;" id="el5nd4uv66dt4" class="animable"></path><path d="M306.46,49.22c2.45,6.13,1.87,16.12-4.85,17.26a12.57,12.57,0,0,1-3.3,0c-.62-4.92-4.85-9.39-3.62-14.13.66-2.61,2.73-7.71,5.13-8.75C303,42.22,305.07,45.85,306.46,49.22Z" style="fill: rgb(0, 255, 136); transform-origin: 301.127px 54.9441px;" id="elprajudkdejs" class="animable"></path><path d="M304.61,71.21c-.91,5.33-2.89,9.89-10,11.59a9.36,9.36,0,0,1-4.81-.21,5.54,5.54,0,0,1-3.49-3A5.17,5.17,0,0,1,287.82,74a14.36,14.36,0,0,1,5.4-3,20.52,20.52,0,0,1,6.54-1.06A14.86,14.86,0,0,1,304.61,71.21Z" style="fill: rgb(0, 255, 136); transform-origin: 295.32px 76.4792px;" id="el99ufrk8p0vt" class="animable"></path><path d="M284.5,58.4c9.64,6.46,19.79,11.8,29.31,17.94" style="fill: none; stroke: rgb(0, 255, 136); stroke-miterlimit: 10; transform-origin: 299.155px 67.37px;" id="elxxmvwllrks" class="animable"></path><path d="M336.92,68.76A17.41,17.41,0,0,1,337,79.65c-1.14,3.3-3.44,5.72-6.81,5.79a14.91,14.91,0,0,1-3.25-.41c0-2.45-1-4.93-1.8-7.37s-1.58-4.8-.94-7.2c.7-2.62,2.65-7.82,5.35-8.62C333.12,60.8,335.7,65,336.92,68.76Z" style="fill: rgb(0, 255, 136); transform-origin: 330.899px 73.5596px;" id="el2scnewrb17s" class="animable"></path><path d="M332.4,90.54a16.48,16.48,0,0,1-3.87,6.6,13.19,13.19,0,0,1-7.76,3.36,8.17,8.17,0,0,1-4.34-.62,4.16,4.16,0,0,1-2.63-3A5.83,5.83,0,0,1,316,91.55,13.32,13.32,0,0,1,321.39,89a16.33,16.33,0,0,1,6.46-.37A14.62,14.62,0,0,1,332.4,90.54Z" style="fill: rgb(0, 255, 136); transform-origin: 323.077px 94.5169px;" id="elqegrlbqj8id" class="animable"></path><path d="M313.81,76.34c4.8,3,9.36,6.35,13.86,9.77s8.73,7.18,12.78,11.12" style="fill: none; stroke: rgb(0, 255, 136); stroke-miterlimit: 10; transform-origin: 327.13px 86.785px;" id="el7hnga2uqpux" class="animable"></path><path d="M364.54,94.13c.88,7.09-3,16.19-9.75,15.15a12.92,12.92,0,0,1-3.12-1,13.94,13.94,0,0,0,.14-3.77c-.13-1.26-.35-2.53-.54-3.8-.37-2.54-.59-5,.5-7.27C353,91,355.86,86.32,358.7,86,362.38,85.7,364.05,90.32,364.54,94.13Z" style="fill: rgb(0, 255, 136); transform-origin: 357.815px 97.6739px;" id="elyj06tyzj28" class="animable"></path><path d="M356.1,114.69c-2.65,4.78-6.06,8.27-13.19,7.74-3-.18-6.24-2-6.36-5a5.68,5.68,0,0,1,3.09-4.84,13.63,13.63,0,0,1,5.89-1.52,17.88,17.88,0,0,1,6.41.89A13.21,13.21,0,0,1,356.1,114.69Z" style="fill: rgb(0, 255, 136); transform-origin: 346.325px 116.768px;" id="elaumjwf8kb1j" class="animable"></path><path d="M340.45,97.23A230.87,230.87,0,0,1,363,122.61" style="fill: none; stroke: rgb(0, 255, 136); stroke-miterlimit: 10; transform-origin: 351.725px 109.92px;" id="elee0tdrvqrjk" class="animable"></path><path d="M387.64,123.63A16.49,16.49,0,0,1,383.77,134c-2.3,2.64-5.37,4-8.52,2.74a14.23,14.23,0,0,1-2.86-1.59c.94-2.29.93-4.93.9-7.57s0-5,1.43-7.09c1.52-2.23,5.1-6.45,7.89-6.38,1.86.08,3,1.19,3.76,2.94A15.19,15.19,0,0,1,387.64,123.63Z" style="fill: rgb(0, 255, 136); transform-origin: 380.019px 125.662px;" id="eloqv3pd9v4a9" class="animable"></path><path d="M375.31,142.31c-3.66,4-7.89,6.45-14.53,4.69-2.81-.75-5.42-2.8-4.8-5.38a6.75,6.75,0,0,1,4-4.07,12.25,12.25,0,0,1,5.87-.72,15.09,15.09,0,0,1,6.07,2A12.79,12.79,0,0,1,375.31,142.31Z" style="fill: rgb(0, 255, 136); transform-origin: 365.599px 142.159px;" id="elbfu2plhqki6" class="animable"></path><path d="M363,122.61l5.12,6.81a72.47,72.47,0,0,1,4.52,7A123.9,123.9,0,0,1,380,151.61" style="fill: none; stroke: rgb(0, 255, 136); stroke-miterlimit: 10; transform-origin: 371.5px 137.11px;" id="el2g1oachli8d" class="animable"></path><path d="M403.18,159.51a17.23,17.23,0,0,1-6.59,8.85c-3,1.91-6.24,2.3-9,.28a15.36,15.36,0,0,1-2.31-2.32c3.12-3.87,2.78-10.23,6.55-13.37,2.1-1.7,6.72-4.83,9.4-3.81C404.85,150.49,404.41,155.69,403.18,159.51Z" style="fill: rgb(0, 255, 136); transform-origin: 394.675px 159.462px;" id="elfsrvmqfmbim" class="animable"></path><path d="M386.15,174a16.39,16.39,0,0,1-7.19,2.58,13.8,13.8,0,0,1-8.07-2.09c-2.49-1.43-4.42-4.11-3.17-6.65a6.06,6.06,0,0,1,4.95-2.89,13.34,13.34,0,0,1,5.9,1.14,16,16,0,0,1,5.28,3.6A12.66,12.66,0,0,1,386.15,174Z" style="fill: rgb(0, 255, 136); transform-origin: 376.739px 170.77px;" id="elyh3svi0d53o" class="animable"></path><path d="M380,151.61a107.3,107.3,0,0,1,7.89,32.57" style="fill: none; stroke: rgb(0, 255, 136); stroke-miterlimit: 10; transform-origin: 383.945px 167.895px;" id="el88d9yl13bms" class="animable"></path><path d="M406.82,200.2a17.31,17.31,0,0,1-4.44,4,14.84,14.84,0,0,1-5.25,2c-3.47.55-6.63-.57-8.26-3.53a18.29,18.29,0,0,1-1.18-3c2.19-1.15,3.8-3.27,5.44-5.33s3.22-4.06,5.52-4.93c2.55-.91,7.94-2.46,10.13-.45C411.77,191.59,409.44,196.86,406.82,200.2Z" style="fill: rgb(0, 255, 136); transform-origin: 398.936px 197.156px;" id="elo6w3hgar2ej" class="animable"></path><path d="M385.26,206.83a16.41,16.41,0,0,1-7.55-1,16.15,16.15,0,0,1-6.43-5c-1.75-2.12-2.5-4.74-.45-6.35a6.78,6.78,0,0,1,5.67-.7,12.75,12.75,0,0,1,5.06,3.06,13.86,13.86,0,0,1,3.44,5.19A10.77,10.77,0,0,1,385.26,206.83Z" style="fill: rgb(0, 255, 136); transform-origin: 377.506px 200.184px;" id="el572vedg5mm" class="animable"></path><path d="M387.89,184.18a73.68,73.68,0,0,1-.78,16.6,57,57,0,0,1-5.1,15.67" style="fill: none; stroke: rgb(0, 255, 136); stroke-miterlimit: 10; transform-origin: 385.03px 200.315px;" id="elswmt6ep798" class="animable"></path><path d="M391.92,238.19a19.4,19.4,0,0,1-10.58,1.28c-3.44-.65-6.18-2.52-6.77-5.86a12.94,12.94,0,0,1-.06-3.29c4.91-.67,9.3-5,14.07-3.85a39.12,39.12,0,0,1,5.06,1.66c1.8.76,3.31,1.94,3.76,3.33C398.87,234.59,395.3,236.71,391.92,238.19Z" style="fill: rgb(0, 255, 136); transform-origin: 386.086px 232.994px;" id="elngxdpse2d" class="animable"></path><path d="M369.85,236.6c-5.33-1-9.76-3.13-11.6-10-.78-2.89,0-6.78,3-8.06a5.19,5.19,0,0,1,5.63,1.39,14.62,14.62,0,0,1,3.07,5.34,19.3,19.3,0,0,1,1.17,6.48A14,14,0,0,1,369.85,236.6Z" style="fill: rgb(0, 255, 136); transform-origin: 364.544px 227.412px;" id="eltbb7iw3cm4c" class="animable"></path><path d="M382,216.45c-.56,1.26-1.33,2.4-2,3.62l-2.2,3.7-4.3,7.45c-1.42,2.47-2.85,4.92-4.34,7.31-.75,1.19-1.51,2.37-2.3,3.54s-1.59,2.31-2.4,3.56" style="fill: none; stroke: rgb(0, 255, 136); stroke-miterlimit: 10; transform-origin: 373.23px 231.04px;" id="el5e3n6pjghqu" class="animable"></path><path d="M375.58,265.89a28.07,28.07,0,0,1-4.6,1.38,24.85,24.85,0,0,1-5.22.52c-3.37,0-6.65-1.1-7.82-4.26a12,12,0,0,1-.61-3.28c4.79-1.45,8.7-5.89,13.54-4.73,2.62.56,7.68,2.58,9,4.73a2.53,2.53,0,0,1-.38,3.38A14.31,14.31,0,0,1,375.58,265.89Z" style="fill: rgb(0, 255, 136); transform-origin: 368.839px 261.56px;" id="elnm2g15w28y" class="animable"></path><path d="M354,267.61c-2.73.28-5.29.4-7.65-.5s-4.44-2.82-5.9-6.75c-1.24-3.3-.62-8.48,2.46-10.53a4.62,4.62,0,0,1,5.84.6,16.4,16.4,0,0,1,3.47,5.35,29,29,0,0,1,2,6.61A20.14,20.14,0,0,1,354,267.61Z" style="fill: rgb(0, 255, 136); transform-origin: 347.074px 258.437px;" id="el2qa7s1gvq9m" class="animable"></path><path d="M364.49,245.63a79.06,79.06,0,0,0-12.29,32.75" style="fill: none; stroke: rgb(0, 255, 136); stroke-miterlimit: 10; transform-origin: 358.345px 262.005px;" id="elre83vw1nj5l" class="animable"></path><path d="M370.92,292a26.22,26.22,0,0,1-8.08,5.89c-3.15,1.41-6.44,1.83-8.89-.53a10,10,0,0,1-1.94-2.71c3.68-3.34,5.39-9,10.22-10.07,2.6-.63,8-1,10.13.42C375.11,286.83,373,289.57,370.92,292Z" style="fill: rgb(0, 255, 136); transform-origin: 362.841px 291.53px;" id="el7m49o1f08ue" class="animable"></path><path d="M352.11,302.73c-4.64,2.77-9.3,5-15.38-.8a11.93,11.93,0,0,1-2.8-5,7.77,7.77,0,0,1,.55-5.55,4.73,4.73,0,0,1,5.58-1.94,16.67,16.67,0,0,1,5.39,3.36,29.52,29.52,0,0,1,4.62,5.15,11.55,11.55,0,0,1,1.16,2.37C351.56,301.1,351.83,301.92,352.11,302.73Z" style="fill: rgb(0, 255, 136); transform-origin: 342.881px 297.368px;" id="ela9sioml3up" class="animable"></path><path d="M352.2,278.38a78.79,78.79,0,0,0,2.92,34.87" style="fill: none; stroke: rgb(0, 255, 136); stroke-miterlimit: 10; transform-origin: 353.272px 295.815px;" id="eldq3k28oz44w" class="animable"></path><path d="M455.34,185.61a15.73,15.73,0,0,1-3.15,5.2,13.74,13.74,0,0,1-4.5,3.4c-3.22,1.48-6.54,1.24-8.88-1.18a13.87,13.87,0,0,1-2-2.62c1.74-1.7,2.75-4.22,3.67-6.7s1.8-5,3.66-6.61c2.1-1.72,6.6-5.16,9.42-3.77,1.9.93,2.73,3,2.93,5.32A17,17,0,0,1,455.34,185.61Z" style="fill: rgb(0, 255, 136); transform-origin: 446.659px 184.069px;" id="elfptexcw3b28" class="animable"></path><path d="M436.44,198a14.62,14.62,0,0,1-15.1-2c-2.14-1.62-3.73-3.77-2.09-5.7a7.33,7.33,0,0,1,5.21-2.21,11.87,11.87,0,0,1,5.7,1.37,13.16,13.16,0,0,1,4.76,4A11.2,11.2,0,0,1,436.44,198Z" style="fill: rgb(0, 255, 136); transform-origin: 427.506px 193.669px;" id="elp8g5uq2av1" class="animable"></path><path d="M429.2,167.89c7.65,13.78,8.66,29.45,6.82,40.44" style="fill: none; stroke: rgb(0, 255, 136); stroke-miterlimit: 10; transform-origin: 433.006px 188.11px;" id="elhgpgbockmn6" class="animable"></path><path d="M450.84,228.22a16.42,16.42,0,0,1-10.64,3.56c-3.52-.19-6.39-1.83-7.39-5.08a17.74,17.74,0,0,1-.51-3.25c4.81-1.31,8.16-6.87,13-7.56,2.7-.3,8.32-.57,10,1.89C457.53,221.12,454.12,225.63,450.84,228.22Z" style="fill: rgb(0, 255, 136); transform-origin: 444.157px 223.743px;" id="elwqs9p0hrrnr" class="animable"></path><path d="M428.45,230.16a16.44,16.44,0,0,1-7.32-2.17,14.15,14.15,0,0,1-5.26-6.47,7.92,7.92,0,0,1-.75-4,3.41,3.41,0,0,1,1.91-2.88,6.5,6.5,0,0,1,5.7.54,12.84,12.84,0,0,1,4.21,4.19,14.65,14.65,0,0,1,2.21,5.94A12.59,12.59,0,0,1,428.45,230.16Z" style="fill: rgb(0, 255, 136); transform-origin: 422.133px 222.19px;" id="ellyxkqhdn6t" class="animable"></path><path d="M436,208.33a76.44,76.44,0,0,1-4.54,16.14,100.48,100.48,0,0,1-7.7,15" style="fill: none; stroke: rgb(0, 255, 136); stroke-miterlimit: 10; transform-origin: 429.88px 223.9px;" id="elux8i6orobcc" class="animable"></path><path d="M431.15,262.82a17.39,17.39,0,0,1-10.91-.05c-3.3-1.19-5.67-3.51-5.7-6.91a13.22,13.22,0,0,1,.46-3.26c5,.13,9.89-3.9,14.68-2.71,2.6.69,7.84,2.57,8.61,5.35C439.3,259,434.9,261.62,431.15,262.82Z" style="fill: rgb(0, 255, 136); transform-origin: 426.488px 256.671px;" id="eloi0c8ob5tib" class="animable"></path><path d="M409.37,258c-5.12-1.82-9.1-4.71-9.76-11.76-.27-3,.85-6.4,3.72-7a5.84,5.84,0,0,1,5.29,2.22,13.29,13.29,0,0,1,2.54,5.48,16.64,16.64,0,0,1,.25,6.48A13.53,13.53,0,0,1,409.37,258Z" style="fill: rgb(0, 255, 136); transform-origin: 405.594px 248.6px;" id="elq8sj6x60l4h" class="animable"></path><path d="M423.78,239.5a166.46,166.46,0,0,1-21.19,26.65" style="fill: none; stroke: rgb(0, 255, 136); stroke-miterlimit: 10; transform-origin: 413.185px 252.825px;" id="elgqqtq6v66n9" class="animable"></path><path d="M406.62,289.82a20,20,0,0,1-10.33-1.53c-3.15-1.43-5.52-3.78-5.32-7.19a12.44,12.44,0,0,1,.75-3.23c4.94.54,10.28-2.55,14.74-.45,2.43,1.16,7.14,4.07,7.51,6.81C414.45,287.89,410.17,289.34,406.62,289.82Z" style="fill: rgb(0, 255, 136); transform-origin: 402.483px 283.318px;" id="elcwq1n1ae56" class="animable"></path><path d="M385.66,283.11c-5.06-1.86-9.48-4.39-9.19-12.28.13-3.32,2.19-7.24,5.36-7.69a5.23,5.23,0,0,1,5.09,2.76,14,14,0,0,1,1.63,6,20.78,20.78,0,0,1-.54,6.69A17,17,0,0,1,385.66,283.11Z" style="fill: rgb(0, 255, 136); transform-origin: 382.538px 273.114px;" id="ely67xe7fyyvg" class="animable"></path><path d="M402.59,266.15c-7.85,8.28-16.48,16.14-23.46,25.69" style="fill: none; stroke: rgb(0, 255, 136); stroke-miterlimit: 10; transform-origin: 390.86px 278.995px;" id="elmbqx3pp2zr" class="animable"></path><path d="M389.52,312.28a32.15,32.15,0,0,1-9.61,1.44c-3.37,0-6.68-.88-7.93-4.07a10.2,10.2,0,0,1-.59-3.31c2.43-.71,4.57-2.17,6.82-3.22s4.49-1.74,6.82-1.09c2.6.67,7.56,2.93,8.74,5.13C395.38,310,392.35,311.27,389.52,312.28Z" style="fill: rgb(0, 255, 136); transform-origin: 382.804px 307.749px;" id="elfbe2l1nvt7w" class="animable"></path><path d="M368.14,314c-2.69.48-5.26.88-7.68.13s-4.67-2.71-6.1-7c-1.26-3.66-.38-9.43,2.86-11.57a4.5,4.5,0,0,1,5.88.68,16.79,16.79,0,0,1,3.23,5.57,34.68,34.68,0,0,1,1.88,6.84A27,27,0,0,1,368.14,314Z" style="fill: rgb(0, 255, 136); transform-origin: 361.06px 304.657px;" id="eldm4urbgf6nu" class="animable"></path><path d="M379.13,291.84a65.07,65.07,0,0,0-8.59,15.6c-2.09,5.6-10.34,21.46-22.67,34.34" style="fill: none; stroke: rgb(0, 255, 136); stroke-miterlimit: 10; transform-origin: 363.5px 316.81px;" id="elf4b746aey0m" class="animable"></path></g><g id="freepik--Manual--inject-61" class="animable" style="transform-origin: 264.496px 283.78px;"><path d="M261,387V135.5H429.84V388.87l-5.48,3.3h-119c-2.6-.57-24.24-.29-44.31-5.18" style="fill: rgb(191, 191, 191); stroke: rgb(38, 50, 56); stroke-linecap: round; stroke-linejoin: round; transform-origin: 345.42px 263.835px;" id="el14jkv7b2a6p" class="animable"></path><path d="M259.44,385.93l-1.23.47c-8.19,3.15-34.31,4.77-43.08,4.77H101V135.5H261Z" style="fill: rgb(38, 50, 56); transform-origin: 181px 263.335px;" id="elon4sb2csnpk" class="animable"></path><path d="M261,387l-1.22.46c-8.2,3.12-34.32,4.72-43.09,4.72h-119V140.68H218.12c9.2,0,34.34-1.76,42.88-5.18h0Z" style="fill: rgb(0, 255, 136); stroke: rgb(38, 50, 56); stroke-miterlimit: 10; transform-origin: 179.345px 263.84px;" id="elk3e115e8mcf" class="animable"></path><path d="M261,387.34l1.22.46c8.2,3.12,32.32,4.72,41.09,4.72H422.36V141H301.88c-9.2,0-32.34-1.76-40.88-5.18h0Z" style="fill: rgb(255, 255, 255); stroke: rgb(38, 50, 56); stroke-linecap: round; stroke-linejoin: round; transform-origin: 341.68px 264.17px;" id="elqv67o1cqxwb" class="animable"></path><path d="M121.05,229.84c-.21.61-5,11.06-5.23,11.68-2.66,8.56-2.43,13.71-1,22.59l.19,1.23c.64,16.62-3.9,25.07-12.46,39.33l-1.73,2.89-1.13,1.68h0l-2.53,3.35s.58,3.22-.88,4.52c-5.39,4.75-8.06,5.62-8.86,13.95l-.49,28.27-1.37-.14c-2.88-.3-5.72-.67-8.49-1.13l-2.37-.41a95.63,95.63,0,0,1-10.52-2.57c-.39-.12-.78-.24-1.16-.38-1.16-.38-2.31-.78-3.42-1.21-.38-.14-.76-.29-1.13-.45-1-.39-1.9-.8-2.82-1.22L55,351.5c-1.35-.65-2.68-1.34-4-2.09-.54-.31-1.06-.62-1.59-1,.36-2,.72-3.91,1.07-5.8a393.78,393.78,0,0,0,6.38-60.11L58,243.44a40.84,40.84,0,0,1,11-25.12l24.74-25.73c.64-.67,2.88-1,3.74-1l0,47.54s6.72-22.53,9-28c5.58-13.6,15.23-10.75,17.43-5.8C125.35,208.54,121.2,229.41,121.05,229.84Z" style="fill: rgb(255, 255, 255); transform-origin: 86.8116px 275.46px;" id="el7wrqgq39ns" class="animable"></path><g style="clip-path: url(&quot;#freepik--clip-path--inject-61&quot;); transform-origin: 100.44px 266.108px;" id="elb384472txjt" class="animable"><path d="M82.91,218.07l5.43,4.59A83.92,83.92,0,0,0,82,232.34c6,6.81,4.76,18.62-2.46,24.09l5.61-3A19.77,19.77,0,0,1,84,262.23c8.12-7.81,12.2-19.08,13.38-30.29a95.7,95.7,0,0,0,.22-15.7c-.27-4.39.06-10.81-1.83-14.74C94.91,202.74,84.81,219.68,82.91,218.07Z" style="fill: rgb(0, 255, 136); transform-origin: 88.681px 231.865px;" id="eldgh2svjrdx" class="animable"></path><g id="eljazt7nb5pg"><path d="M82.91,218.07l5.43,4.59A83.92,83.92,0,0,0,82,232.34c6,6.81,4.76,18.62-2.46,24.09l5.61-3A19.77,19.77,0,0,1,84,262.23c8.12-7.81,12.2-19.08,13.38-30.29a95.7,95.7,0,0,0,.22-15.7c-.27-4.39.06-10.81-1.83-14.74C94.91,202.74,84.81,219.68,82.91,218.07Z" style="fill: rgb(255, 255, 255); opacity: 0.5; transform-origin: 88.681px 231.865px;" class="animable"></path></g><path d="M97.15,312.6s-8.74,2-9.22,8-.52,10.49-.52,10.49a17.12,17.12,0,0,1,8.86-13.95Z" style="fill: rgb(0, 255, 136); transform-origin: 92.28px 321.845px;" id="eltim5uzuvqcl" class="animable"></path><g id="eli96jshoaa9q"><path d="M97.15,312.6s-8.74,2-9.22,8-.52,10.49-.52,10.49a17.12,17.12,0,0,1,8.86-13.95Z" style="fill: rgb(255, 255, 255); opacity: 0.5; transform-origin: 92.28px 321.845px;" class="animable"></path></g><path d="M121.34,203.32l-4.28-.41,1.16,1.3c-2.94,1-6.08,2.06-7.89,4.58s-1.25,6.87,1.71,7.75l-4.07-.87a5.33,5.33,0,0,0,2.64,6.27,15.59,15.59,0,0,0-5.94,8.47c-1.56,5.61,0,12-2.65,17.14a22.52,22.52,0,0,1-5.29,6L83.67,265.22a140.14,140.14,0,0,0,18.66-40.94c2-7.26,3.63-15.15,9.11-20.31a10,10,0,0,1,4.78-2.71,5.37,5.37,0,0,1,5.09,1.54l-1.16-.91Z" style="fill: rgb(0, 255, 136); transform-origin: 102.505px 233.173px;" id="elygp8aohui4j" class="animable"></path><g id="eli203492eg8"><g style="opacity: 0.5; transform-origin: 102.505px 233.173px;" class="animable"><path d="M121.34,203.32l-4.28-.41,1.16,1.3c-2.94,1-6.08,2.06-7.89,4.58s-1.25,6.87,1.71,7.75l-4.07-.87a5.33,5.33,0,0,0,2.64,6.27,15.59,15.59,0,0,0-5.94,8.47c-1.56,5.61,0,12-2.65,17.14a22.52,22.52,0,0,1-5.29,6L83.67,265.22a140.14,140.14,0,0,0,18.66-40.94c2-7.26,3.63-15.15,9.11-20.31a10,10,0,0,1,4.78-2.71,5.37,5.37,0,0,1,5.09,1.54l-1.16-.91Z" style="fill: rgb(255, 255, 255); transform-origin: 102.505px 233.173px;" id="elq56038n1eh" class="animable"></path></g></g></g><path d="M49.4,348.46c.36-2,.72-3.91,1.07-5.8a393.78,393.78,0,0,0,6.38-60.11L58,243.44a40.84,40.84,0,0,1,11-25.12l24.74-25.73c.64-.67,2.88-1,3.74-1l0,47.54s6.72-22.53,9-28c5.58-13.6,15.23-10.75,17.43-5.8,1.45,3.26-2.7,24.13-2.85,24.56-.21.61-5,11.06-5.23,11.68-2.66,8.56-2.43,13.71-1,22.59l.19,1.23c.64,16.62-3.9,25.07-12.46,39.33l-1.73,2.89-1.13,1.68h0l-2.53,3.35s.58,3.22-.88,4.52c-5.39,4.75-8.06,5.62-8.86,13.95l-.49,28.27" style="fill: none; stroke: rgb(38, 50, 56); stroke-linecap: round; stroke-linejoin: round; transform-origin: 86.8085px 275.485px;" id="el526zqly0cxl" class="animable"></path><path d="M81.27,220.69c4.9,1.88,7.68,2.29,10.54,1.88,2.52-.36,4.68-5.43,5.83-8.49" style="fill: none; stroke: rgb(38, 50, 56); stroke-linecap: round; stroke-linejoin: round; transform-origin: 89.455px 218.397px;" id="elcab33efdxm8" class="animable"></path><path d="M79.23,229.84a26.1,26.1,0,0,1,16.35,14.51" style="fill: none; stroke: rgb(38, 50, 56); stroke-linecap: round; stroke-linejoin: round; transform-origin: 87.405px 237.095px;" id="elcgdcmppa847" class="animable"></path><path d="M84,265.34a22.28,22.28,0,0,1,6.68-10.54c1.59-1.39,2.32-4.3,3.19-6.22l4.15-10.94" style="fill: none; stroke: rgb(38, 50, 56); stroke-linecap: round; stroke-linejoin: round; transform-origin: 91.01px 251.49px;" id="elxyas9oo803f" class="animable"></path><path d="M108.21,215.41l10.22,4.64s4.88-9.91,1.32-14.2" style="fill: none; stroke: rgb(38, 50, 56); stroke-linecap: round; stroke-linejoin: round; transform-origin: 114.63px 212.95px;" id="ely2kis7wq76m" class="animable"></path><path d="M84.26,254.22A25.64,25.64,0,0,1,92.18,253" style="fill: none; stroke: rgb(38, 50, 56); stroke-linecap: round; stroke-linejoin: round; transform-origin: 88.22px 253.61px;" id="el0bmfe2gfo3o" class="animable"></path><path d="M92.06,222.67c.1,1.52,4.23,4.26,5.58,4" style="fill: none; stroke: rgb(38, 50, 56); stroke-linecap: round; stroke-linejoin: round; transform-origin: 94.85px 224.679px;" id="elqx6xcw4kk8e" class="animable"></path><path d="M87.06,338.88l.52-16.35a6.36,6.36,0,0,1,2.78-5.15c3.11-2.11,7.86-5.47,10.36-9.67" style="fill: none; stroke: rgb(38, 50, 56); stroke-linecap: round; stroke-linejoin: round; transform-origin: 93.89px 323.295px;" id="el94s2l25kuls" class="animable"></path><path d="M392.53,432.06v-46.9l-.7-10.44s-6.31-9.1-5.91-19.15c.33-8.47,10.09-35.16,10.78-37.95.26-1,2.44-18.45,2.44-19.48s1-15.32,4.52-18.45,9.4-4.53,11.14,0,3.48,18.79,2.45,24-3.14,11.49-3.84,16a35.66,35.66,0,0,0,.36,10.09h15.66l2.77-8.7.71-17.41s-8.92-4.56-10.55-9v-4.21c.07-1.45.06-2.94,0-4.28v-4.61c3.1,1.5,23.59,11.51,25.51,14.07,2.09,2.79,3.48,13.93,3.48,13.93l2.76-6.91,0-.06s-8.71-14.26-9.4-16.69c0,0-7-1.74-10.09-5.58s-5.22-7.65-2.09-11.13,20.19,6.26,20.19,6.26l11.41,14.75,5.29,6.83s9.75,9.87,10.14,12.47c.45,2.94-3.88,15.72-3.88,15.72l-14.26,28.55c-.83,1.5-7.7,8.67-14.68,15.77-7.67,7.82-15.47,15.56-15.47,15.56l1.18,10.55a105.34,105.34,0,0,1-15.35,17.7c-1.85,1.69-3.75,3.34-5.72,5a178,178,0,0,1-18.88,13.66" style="fill: rgb(255, 255, 255); transform-origin: 432.747px 350.254px;" id="elxsyjh5p9pep" class="animable"></path><g style="clip-path: url(&quot;#freepik--clip-path-2--inject-61&quot;); transform-origin: 443.451px 326.3px;" id="eli517sng2rdq" class="animable"><path d="M426.57,373.25c1.55-3.87,4.8-6.75,7.69-9.75A70.41,70.41,0,0,0,453,325.67a55.59,55.59,0,0,1-1.12,28.48,47.84,47.84,0,0,0,13.88-21.26,44.7,44.7,0,0,1-9,23.82,33.52,33.52,0,0,0,8.7-12.19c-4.3,10.34-12.54,20.15-20.32,28.05-3.35,3.4-8.76,10.1-13.37,11.63C426.22,386,425,377.21,426.57,373.25Z" style="fill: rgb(0, 255, 136); transform-origin: 445.849px 355.055px;" id="el6g212qvli0g" class="animable"></path><path d="M426.57,373.25c1.55-3.87,4.8-6.75,7.69-9.75A70.41,70.41,0,0,0,453,325.67a55.59,55.59,0,0,1-1.12,28.48,47.84,47.84,0,0,0,13.88-21.26,44.7,44.7,0,0,1-9,23.82,33.52,33.52,0,0,0,8.7-12.19c-4.3,10.34-12.54,20.15-20.32,28.05-3.35,3.4-8.76,10.1-13.37,11.63C426.22,386,425,377.21,426.57,373.25Z" style="fill: rgb(0, 255, 136); transform-origin: 445.849px 355.055px;" id="el5xfpw3vf7e" class="animable"></path><g id="eld3xp42r6oq9"><path d="M426.57,373.25c1.55-3.87,4.8-6.75,7.69-9.75A70.41,70.41,0,0,0,453,325.67a55.59,55.59,0,0,1-1.12,28.48,47.84,47.84,0,0,0,13.88-21.26,44.7,44.7,0,0,1-9,23.82,33.52,33.52,0,0,0,8.7-12.19c-4.3,10.34-12.54,20.15-20.32,28.05-3.35,3.4-8.76,10.1-13.37,11.63C426.22,386,425,377.21,426.57,373.25Z" style="fill: rgb(255, 255, 255); opacity: 0.5; transform-origin: 445.849px 355.055px;" class="animable"></path></g><path d="M431,271.3a16.35,16.35,0,0,0,14.78,7.81,16.86,16.86,0,0,0,5,11.33c2.59,2.57,6.18,4.51,7.25,8a12.93,12.93,0,0,1,0,5.64,165.86,165.86,0,0,1-5.51,24.2V306.51A25.73,25.73,0,0,0,452,300c-1.29-4.9-5.37-8.75-6.42-13.71-8.72-.66-16-9.44-15-18.13Z" style="fill: rgb(0, 255, 136); transform-origin: 444.415px 298.22px;" id="el7u20jfhslxl" class="animable"></path><path d="M411.84,279.53c-1.53.4-2.14,2.32-1.88,3.89s1.07,3,1.35,4.53-.24,3.49-1.75,4c2.43-.26,4.51,2.07,4.88,4.49s-.49,4.82-1.35,7.11c-2.73,7.29-5.52,14.82-5.16,22.59s4.72,15.93,12.16,18.22c-1.93,0-3.21-2.42-2.57-4.26a5.43,5.43,0,0,1,4.48-3.22,20.82,20.82,0,0,1,5.78.33,10.89,10.89,0,0,0,5.73-.42c-.2-4.63,1-9.19,2.18-13.67l4.92-18.54c.54-2,1.06-4.26.14-6.14s-4-2.67-5.07-.87l1.77-4.71a6.63,6.63,0,0,0-5,3.43l-10-11.65c-1.06,4.36-1.86,9.66,1.41,12.73,1.64,1.54,4,2.13,5.73,3.57,3.06,2.56,3.47,7.07,3.25,11A60.49,60.49,0,0,1,429,330.22l-11.37-.1a6.08,6.08,0,0,1-3.19-.62c-1.46-.9-1.88-2.83-2-4.55-.28-6.15,3.37-14.34,4.61-20.36,1.59-7.68.12-13.43-1.62-21.07a12.18,12.18,0,0,0-2.15-5.14c-.43-.52-3.2-2.83-4-1.83S411.33,278.77,411.84,279.53Z" style="fill: rgb(0, 255, 136); transform-origin: 424.576px 310.331px;" id="elkfmihblri9k" class="animable"></path><path d="M431,271.3a16.35,16.35,0,0,0,14.78,7.81,16.86,16.86,0,0,0,5,11.33c2.59,2.57,6.18,4.51,7.25,8a12.93,12.93,0,0,1,0,5.64,165.86,165.86,0,0,1-5.51,24.2V306.51A25.73,25.73,0,0,0,452,300c-1.29-4.9-5.37-8.75-6.42-13.71-8.72-.66-16-9.44-15-18.13Z" style="fill: rgb(0, 255, 136); transform-origin: 444.415px 298.22px;" id="el2i7lenhse3r" class="animable"></path><path d="M411.84,279.53c-1.53.4-2.14,2.32-1.88,3.89s1.07,3,1.35,4.53-.24,3.49-1.75,4c2.43-.26,4.51,2.07,4.88,4.49s-.49,4.82-1.35,7.11c-2.73,7.29-5.52,14.82-5.16,22.59s4.72,15.93,12.16,18.22c-1.93,0-3.21-2.42-2.57-4.26a5.43,5.43,0,0,1,4.48-3.22,20.82,20.82,0,0,1,5.78.33,10.89,10.89,0,0,0,5.73-.42c-.2-4.63,1-9.19,2.18-13.67l4.92-18.54c.54-2,1.06-4.26.14-6.14s-4-2.67-5.07-.87l1.77-4.71a6.63,6.63,0,0,0-5,3.43l-10-11.65c-1.06,4.36-1.86,9.66,1.41,12.73,1.64,1.54,4,2.13,5.73,3.57,3.06,2.56,3.47,7.07,3.25,11A60.49,60.49,0,0,1,429,330.22l-11.37-.1a6.08,6.08,0,0,1-3.19-.62c-1.46-.9-1.88-2.83-2-4.55-.28-6.15,3.37-14.34,4.61-20.36,1.59-7.68.12-13.43-1.62-21.07a12.18,12.18,0,0,0-2.15-5.14c-.43-.52-3.2-2.83-4-1.83S411.33,278.77,411.84,279.53Z" style="fill: rgb(0, 255, 136); transform-origin: 424.576px 310.331px;" id="el5hoa9zmuy0g" class="animable"></path><g id="ellt5wtz187wn"><g style="opacity: 0.5; transform-origin: 433.12px 306.26px;" class="animable"><path d="M431,271.3a16.35,16.35,0,0,0,14.78,7.81,16.86,16.86,0,0,0,5,11.33c2.59,2.57,6.18,4.51,7.25,8a12.93,12.93,0,0,1,0,5.64,165.86,165.86,0,0,1-5.51,24.2V306.51A25.73,25.73,0,0,0,452,300c-1.29-4.9-5.37-8.75-6.42-13.71-8.72-.66-16-9.44-15-18.13Z" style="fill: rgb(255, 255, 255); transform-origin: 444.415px 298.22px;" id="elmxkez8xgld" class="animable"></path><path d="M411.84,279.53c-1.53.4-2.14,2.32-1.88,3.89s1.07,3,1.35,4.53-.24,3.49-1.75,4c2.43-.26,4.51,2.07,4.88,4.49s-.49,4.82-1.35,7.11c-2.73,7.29-5.52,14.82-5.16,22.59s4.72,15.93,12.16,18.22c-1.93,0-3.21-2.42-2.57-4.26a5.43,5.43,0,0,1,4.48-3.22,20.82,20.82,0,0,1,5.78.33,10.89,10.89,0,0,0,5.73-.42c-.2-4.63,1-9.19,2.18-13.67l4.92-18.54c.54-2,1.06-4.26.14-6.14s-4-2.67-5.07-.87l1.77-4.71a6.63,6.63,0,0,0-5,3.43l-10-11.65c-1.06,4.36-1.86,9.66,1.41,12.73,1.64,1.54,4,2.13,5.73,3.57,3.06,2.56,3.47,7.07,3.25,11A60.49,60.49,0,0,1,429,330.22l-11.37-.1a6.08,6.08,0,0,1-3.19-.62c-1.46-.9-1.88-2.83-2-4.55-.28-6.15,3.37-14.34,4.61-20.36,1.59-7.68.12-13.43-1.62-21.07a12.18,12.18,0,0,0-2.15-5.14c-.43-.52-3.2-2.83-4-1.83S411.33,278.77,411.84,279.53Z" style="fill: rgb(255, 255, 255); transform-origin: 424.576px 310.331px;" id="elnsf6dadsv" class="animable"></path></g></g><path d="M460.12,355.05q7.88-15.17,15.23-30.6c1.73-3.63,3.47-7.4,3.65-11.43.11-2.63-2.06-12.74-6.05-12.67-2.66,0-4.18,14.06-4.7,16.49Z" style="fill: rgb(0, 255, 136); transform-origin: 469.562px 327.7px;" id="elhxwhfbqcv0l" class="animable"></path><g id="el834gqbl0i4"><path d="M460.12,355.05q7.88-15.17,15.23-30.6c1.73-3.63,3.47-7.4,3.65-11.43.11-2.63-2.06-12.74-6.05-12.67-2.66,0-4.18,14.06-4.7,16.49Z" style="fill: rgb(255, 255, 255); opacity: 0.5; transform-origin: 469.562px 327.7px;" class="animable"></path></g></g><path d="M392.53,432.06v-46.9l-.7-10.44s-6.31-9.1-5.91-19.15c.33-8.47,10.09-35.16,10.78-37.95.26-1,2.44-18.45,2.44-19.48s1-15.32,4.52-18.45,9.4-4.53,11.14,0,3.48,18.79,2.45,24-3.14,11.49-3.84,16a35.66,35.66,0,0,0,.36,10.09h15.66l2.77-8.7.71-17.41s-8.92-4.56-10.55-9v-4.21c.07-1.45.06-2.94,0-4.28v-4.61c3.1,1.5,23.59,11.51,25.51,14.07,2.09,2.79,3.48,13.93,3.48,13.93l2.76-6.91,0-.06s-8.71-14.26-9.4-16.69c0,0-7-1.74-10.09-5.58s-5.22-7.65-2.09-11.13,20.19,6.26,20.19,6.26l11.41,14.75,5.29,6.83s9.75,9.87,10.14,12.47c.45,2.94-3.88,15.72-3.88,15.72l-14.26,28.55c-.83,1.5-7.7,8.67-14.68,15.77-7.67,7.82-15.47,15.56-15.47,15.56l1.18,10.55" style="fill: none; stroke: rgb(38, 50, 56); stroke-linecap: round; stroke-linejoin: round; transform-origin: 432.747px 350.254px;" id="elrlhmihoiygi" class="animable"></path><path d="M471.31,304.79a143.08,143.08,0,0,1-8.58,36.68" style="fill: none; stroke: rgb(38, 50, 56); stroke-linecap: round; stroke-linejoin: round; transform-origin: 467.02px 323.13px;" id="elpr9jgudkvqp" class="animable"></path><path d="M452.08,315.19a90,90,0,0,0,1.18,14.94c.55,3.35,1.22,7.05-.58,9.92" style="fill: none; stroke: rgb(38, 50, 56); stroke-linecap: round; stroke-linejoin: round; transform-origin: 452.965px 327.62px;" id="elsal51k3wj5i" class="animable"></path><path d="M412.93,292.33l-10.22.47s-.77-10,3.69-12.46" style="fill: none; stroke: rgb(38, 50, 56); stroke-linecap: round; stroke-linejoin: round; transform-origin: 407.795px 286.57px;" id="el6xmscvgqsr" class="animable"></path><path d="M433.06,304.13a7.73,7.73,0,0,1,.5-4.65" style="fill: none; stroke: rgb(38, 50, 56); stroke-linecap: round; stroke-linejoin: round; transform-origin: 433.233px 301.805px;" id="el5ehxvkyra15" class="animable"></path><path d="M453.81,303.24l2.86-4.94" style="fill: none; stroke: rgb(38, 50, 56); stroke-linecap: round; stroke-linejoin: round; transform-origin: 455.24px 300.77px;" id="elibsnk4rkm" class="animable"></path><path d="M446.08,281.31a6.7,6.7,0,0,0-.91,5.55" style="fill: none; stroke: rgb(38, 50, 56); stroke-linecap: round; stroke-linejoin: round; transform-origin: 445.503px 284.085px;" id="elrs6vhf244nj" class="animable"></path><path d="M413.14,325.51s-1.17,8.15,3,10.76" style="fill: none; stroke: rgb(38, 50, 56); stroke-linecap: round; stroke-linejoin: round; transform-origin: 414.564px 330.89px;" id="el1q64j97p3f7" class="animable"></path></g><g id="freepik--Content--inject-61" class="animable" style="transform-origin: 265.835px 267.741px;"><path d="M171.23,335.58l-3.66-1.17-3.84,3.49a6.3,6.3,0,0,1,7.93-7.2l7.21-6.55,5.77-5.24,7.22-6.55a6.29,6.29,0,0,1,7.92-7.2l-3.84,3.49.82,3.76,3.66,1.17,3.84-3.49a6.3,6.3,0,0,1-7.93,7.2l-7.21,6.55-5.78,5.24-7.21,6.55a6.3,6.3,0,0,1-7.93,7.19l3.85-3.48Z" style="fill: rgb(255, 255, 255); stroke: rgb(38, 50, 56); stroke-linecap: round; stroke-linejoin: round; transform-origin: 183.995px 323.989px;" id="elguxeifxjfhh" class="animable"></path><g id="elc0womo8u4mj"><path d="M171.23,335.58l-3.66-1.17-3.84,3.49a6.3,6.3,0,0,1,7.93-7.2l7.21-6.55,5.77-5.24,7.22-6.55a6.29,6.29,0,0,1,7.92-7.2l-3.84,3.49.82,3.76,3.66,1.17,3.84-3.49a6.3,6.3,0,0,1-7.93,7.2l-7.21,6.55-5.78,5.24-7.21,6.55a6.3,6.3,0,0,1-7.93,7.19l3.85-3.48Z" style="fill: rgb(255, 255, 255); stroke: rgb(38, 50, 56); stroke-linecap: round; stroke-linejoin: round; opacity: 0.4; transform-origin: 183.995px 323.989px;" class="animable"></path></g><path d="M170.58,313.66l-5.11-6.44L169,304l5.92,5.71.7,1.54a5.28,5.28,0,0,0,.86,1.29l7.11,7.83-3.24,2.94-7.11-7.83a5.16,5.16,0,0,0-1.21-1Z" style="fill: rgb(255, 255, 255); stroke: rgb(38, 50, 56); stroke-linecap: round; stroke-linejoin: round; transform-origin: 174.53px 313.655px;" id="elp18wowkg2ki" class="animable"></path><g id="el9t7dezg8ts"><path d="M170.58,313.66l-5.11-6.44L169,304l5.92,5.71.7,1.54a5.28,5.28,0,0,0,.86,1.29l7.11,7.83-3.24,2.94-7.11-7.83a5.16,5.16,0,0,0-1.21-1Z" style="fill: rgb(255, 255, 255); stroke: rgb(38, 50, 56); stroke-linecap: round; stroke-linejoin: round; opacity: 0.7; transform-origin: 174.53px 313.655px;" class="animable"></path></g><path d="M183.05,327.4l-2.13-2.35-.15.13a.83.83,0,0,1-1.11-1.24l4.64-4.21a.83.83,0,1,1,1.11,1.23l-.14.13,2.14,2.36a2.44,2.44,0,0,1,2.2.9l12.32,13.57c1.47,1.61.61,3.32-1,4.79s-3.4,2.15-4.86.54l-12.32-13.57A2.48,2.48,0,0,1,183.05,327.4Z" style="fill: rgb(255, 255, 255); stroke: rgb(38, 50, 56); stroke-linecap: round; stroke-linejoin: round; transform-origin: 191.035px 331.83px;" id="elzqu1lz39mo" class="animable"></path><path d="M183.05,327.4l-2.13-2.35-.15.13a.83.83,0,0,1-1.11-1.24l4.64-4.21a.83.83,0,1,1,1.11,1.23l-.14.13,2.14,2.36a2.44,2.44,0,0,1,2.2.9l12.32,13.57c1.47,1.61.61,3.32-1,4.79s-3.4,2.15-4.86.54l-12.32-13.57A2.48,2.48,0,0,1,183.05,327.4Z" style="fill: rgb(38, 50, 56); transform-origin: 191.035px 331.83px;" id="elwf2ct07ru9" class="animable"></path><rect x="143.54" y="271.69" width="81.78" height="3" style="fill: rgb(38, 50, 56); transform-origin: 184.43px 273.19px;" id="elzkvio6dwrud" class="animable"></rect><rect x="153.24" y="278.99" width="59.5" height="3" style="fill: rgb(38, 50, 56); transform-origin: 182.99px 280.49px;" id="eld97x7xzw4le" class="animable"></rect><rect x="157.6" y="287.27" width="48.78" height="3" style="fill: rgb(38, 50, 56); transform-origin: 181.99px 288.77px;" id="eljhl4d0zl5xj" class="animable"></rect><polygon points="320.58 353.74 320.58 367.35 283.35 338.64 320.58 353.74" style="fill: rgb(255, 255, 255); stroke: rgb(38, 50, 56); stroke-linecap: round; stroke-linejoin: round; transform-origin: 301.965px 352.995px;" id="elrcn0ajay9h" class="animable"></polygon><polygon points="282.49 338.17 320.58 353.74 328.22 348.15 320.91 342.15 282.49 338.17" style="fill: rgb(255, 255, 255); stroke: rgb(38, 50, 56); stroke-linecap: round; stroke-linejoin: round; transform-origin: 305.355px 345.955px;" id="el3u9yse0z21h" class="animable"></polygon><polygon points="282.49 338.17 293.37 360.13 306.01 364.02 311.04 360.3 311.25 360.15 316.1 356.56 283.38 338.66 282.49 338.17" style="fill: rgb(255, 255, 255); stroke: rgb(38, 50, 56); stroke-linecap: round; stroke-linejoin: round; transform-origin: 299.295px 351.095px;" id="el99b5q7peibg" class="animable"></polygon><polygon points="316.1 356.56 320.58 367.35 311.04 360.3 316.1 356.56" style="fill: rgb(255, 255, 255); stroke: rgb(38, 50, 56); stroke-linecap: round; stroke-linejoin: round; transform-origin: 315.81px 361.955px;" id="elruddx4axugb" class="animable"></polygon><polygon points="345.17 286.03 342.37 274.63 342.26 274.21 342.26 315.27 346.99 315.27 351.76 315.27 345.17 286.03" style="fill: rgb(255, 255, 255); stroke: rgb(38, 50, 56); stroke-linecap: square; stroke-miterlimit: 10; transform-origin: 347.01px 294.74px;" id="eltamsuq7cz5" class="animable"></polygon><polygon points="342.28 274.31 342.28 306.58 347.85 317.74 351.75 315.79 342.28 274.31" style="fill: rgb(255, 255, 255); stroke: rgb(38, 50, 56); stroke-linecap: square; stroke-miterlimit: 10; transform-origin: 347.015px 296.025px;" id="el27esap7kr6a" class="animable"></polygon><polygon points="382.01 211.72 382.01 253.36 396.9 253.36 396.9 241.25 382.01 211.72" style="fill: rgb(255, 255, 255); stroke: rgb(38, 50, 56); stroke-linecap: round; stroke-linejoin: round; transform-origin: 389.455px 232.54px;" id="elgwolymc7twp" class="animable"></polygon><line x1="396.9" y1="241.24" x2="382.01" y2="232.74" style="fill: rgb(255, 255, 255); stroke: rgb(38, 50, 56); stroke-miterlimit: 10; transform-origin: 389.455px 236.99px;" id="elr2qtta93cj" class="animable"></line><polygon points="277.94 252.98 277.94 241.12 292.83 212.09 306.96 241.12 306.96 252.98 277.94 252.98" style="fill: rgb(255, 255, 255); stroke: rgb(38, 50, 56); stroke-linecap: round; stroke-linejoin: round; transform-origin: 292.45px 232.535px;" id="el9u8ksq86by" class="animable"></polygon><polyline points="277.94 241.12 292.83 232.95 306.96 241.12" style="fill: none; stroke: rgb(38, 50, 56); stroke-linecap: round; stroke-linejoin: round; transform-origin: 292.45px 237.035px;" id="elusj8g8459i" class="animable"></polyline><line x1="292.83" y1="212.09" x2="292.83" y2="252.98" style="fill: none; stroke: rgb(38, 50, 56); stroke-linecap: round; stroke-linejoin: round; transform-origin: 292.83px 232.535px;" id="eljqd4z4io6oc" class="animable"></line><path d="M384.94,377l-.76-.65" style="fill: none; stroke: rgb(38, 50, 56); stroke-linecap: round; stroke-linejoin: round; transform-origin: 384.56px 376.675px;" id="elca79s3tg18d" class="animable"></path><path d="M380.89,373.85a28.2,28.2,0,0,0-4.61-2.51c-5.92-2.52-9.7,1.24-8.17,3.9,3.41,5.93,15.92-1.18,3.41-8.19-11.12-6.23-34.29,5.22-46.34,2.91" style="fill: none; stroke: rgb(38, 50, 56); stroke-linecap: round; stroke-linejoin: round; stroke-dasharray: 2.06141, 4.12283; transform-origin: 353.035px 371.311px;" id="elmiii1pdv3as" class="animable"></path><path d="M323.2,369.42a9.46,9.46,0,0,1-.92-.4" style="fill: none; stroke: rgb(38, 50, 56); stroke-linecap: round; stroke-linejoin: round; transform-origin: 322.74px 369.22px;" id="eldtc7owgxaff" class="animable"></path><polygon points="327.17 252.98 327.17 241.12 342.06 212.09 356.2 241.12 356.2 252.98 327.17 252.98" style="fill: rgb(255, 255, 255); stroke: rgb(38, 50, 56); stroke-linecap: round; stroke-linejoin: round; transform-origin: 341.685px 232.535px;" id="elkufc6pjnsb9" class="animable"></polygon><polyline points="327.17 241.12 342.06 232.95 356.2 241.12" style="fill: none; stroke: rgb(38, 50, 56); stroke-linecap: round; stroke-linejoin: round; transform-origin: 341.685px 237.035px;" id="el57efw76uoz2" class="animable"></polyline><line x1="342.01" y1="212.51" x2="342.01" y2="253.4" style="fill: none; stroke: rgb(38, 50, 56); stroke-linecap: round; stroke-linejoin: round; stroke-dasharray: 2, 4; transform-origin: 342.01px 232.955px;" id="elvqtgr41sp7" class="animable"></line><rect x="278.45" y="158.34" width="29.57" height="41.52" style="fill: rgb(255, 255, 255); stroke: rgb(38, 50, 56); stroke-linecap: round; stroke-linejoin: round; transform-origin: 293.235px 179.1px;" id="elxsf8is8t4vi" class="animable"></rect><line x1="293.24" y1="158.03" x2="293.24" y2="199.62" style="fill: none; stroke: rgb(38, 50, 56); stroke-linecap: round; stroke-linejoin: round; stroke-dasharray: 2, 4; transform-origin: 293.24px 178.825px;" id="elpexnwyt3o2" class="animable"></line><path d="M286.5,183.52c2.57-2.65,7.26-4.33,12-4.3s9.37,1.77,11.86,4.45c.13-3-2-6.09-5.65-8a21,21,0,0,0-13-1.67" style="fill: none; stroke: rgb(0, 255, 136); stroke-miterlimit: 10; transform-origin: 298.433px 178.647px;" id="eldck4gtd8q8j" class="animable"></path><polygon points="289.09 174.21 291.32 175.59 291.32 172.83 289.09 174.21" style="fill: none; stroke: rgb(0, 255, 136); stroke-miterlimit: 10; transform-origin: 290.205px 174.21px;" id="ela43i5apcle" class="animable"></polygon><polygon points="292.45 273.82 292.45 315.46 307.34 315.46 307.34 303.35 292.45 273.82" style="fill: rgb(255, 255, 255); stroke: rgb(38, 50, 56); stroke-linecap: square; stroke-miterlimit: 10; transform-origin: 299.895px 294.64px;" id="eldfnyn56s2fu" class="animable"></polygon><line x1="292.45" y1="274.21" x2="301.86" y2="315.46" style="fill: none; stroke: rgb(38, 50, 56); stroke-linecap: round; stroke-linejoin: round; stroke-dasharray: 2, 4; transform-origin: 297.155px 294.835px;" id="eljbppgi1ei5b" class="animable"></line><line x1="307.34" y1="303.35" x2="292.45" y2="294.84" style="fill: rgb(255, 255, 255); stroke: rgb(38, 50, 56); stroke-linecap: square; stroke-miterlimit: 10; transform-origin: 299.895px 299.095px;" id="elbu2tpob81aa" class="animable"></line><path d="M303.35,303.28a8.14,8.14,0,0,1-6.79,5.84" style="fill: none; stroke: rgb(0, 255, 136); stroke-linecap: round; stroke-linejoin: round; transform-origin: 299.955px 306.2px;" id="elbx9ozde68z9" class="animable"></path><polygon points="294.44 309.49 296.83 310.56 296.46 307.82 294.44 309.49" style="fill: none; stroke: rgb(0, 255, 136); stroke-miterlimit: 10; transform-origin: 295.635px 309.19px;" id="elonssuycbmd" class="animable"></polygon><rect x="326.9" y="158.34" width="29.57" height="41.52" style="fill: rgb(255, 255, 255); stroke: rgb(38, 50, 56); stroke-linecap: round; stroke-linejoin: round; transform-origin: 341.685px 179.1px;" id="el6mlgq8vrol3" class="animable"></rect><polyline points="326.84 172.81 342.01 158.34 356.41 172.81" style="fill: none; stroke: rgb(38, 50, 56); stroke-linecap: round; stroke-linejoin: round; stroke-dasharray: 2, 4; transform-origin: 341.625px 165.575px;" id="elruvfds943pd" class="animable"></polyline><line x1="342.01" y1="159.31" x2="342.01" y2="199.62" style="fill: none; stroke: rgb(38, 50, 56); stroke-linecap: round; stroke-linejoin: round; transform-origin: 342.01px 179.465px;" id="elwa4vc3kdt1g" class="animable"></line><path d="M330.8,162.74a8.13,8.13,0,0,1,5.83,6.79" style="fill: none; stroke: rgb(0, 255, 136); stroke-linecap: round; stroke-linejoin: round; transform-origin: 333.715px 166.135px;" id="elhqpvi8iqaz8" class="animable"></path><polygon points="337 171.65 338.07 169.26 335.33 169.63 337 171.65" style="fill: none; stroke: rgb(0, 255, 136); stroke-miterlimit: 10; transform-origin: 336.7px 170.455px;" id="elcartkneruwu" class="animable"></polygon><path d="M351.65,162.74a8.14,8.14,0,0,0-5.84,6.79" style="fill: none; stroke: rgb(0, 255, 136); stroke-linecap: round; stroke-linejoin: round; transform-origin: 348.73px 166.135px;" id="el50kydc6q01k" class="animable"></path><polygon points="345.45 171.65 344.38 169.26 347.11 169.63 345.45 171.65" style="fill: none; stroke: rgb(0, 255, 136); stroke-miterlimit: 10; transform-origin: 345.745px 170.455px;" id="elxzmephgu2r" class="animable"></polygon><polygon points="404.8 199.62 375.23 199.62 375.23 172.5 390.4 158.03 404.8 172.5 404.8 199.62" style="fill: rgb(255, 255, 255); stroke: rgb(38, 50, 56); stroke-linecap: round; stroke-linejoin: round; transform-origin: 390.015px 178.825px;" id="elpeodou4ijdj" class="animable"></polygon><polyline points="375.23 187.6 390.4 158.03 404.8 187.6" style="fill: none; stroke: rgb(38, 50, 56); stroke-linecap: round; stroke-linejoin: round; stroke-dasharray: 2, 4; transform-origin: 390.015px 172.815px;" id="elven10b83e5o" class="animable"></polyline><polyline points="404.8 172.5 397.45 172.5 390.4 172.5 382.98 172.5 375.23 172.5" style="fill: none; stroke: rgb(38, 50, 56); stroke-linecap: round; stroke-linejoin: round; transform-origin: 390.015px 172.5px;" id="elf47xpawpaqp" class="animable"></polyline><line x1="390.4" y1="158.03" x2="390.4" y2="199.62" style="fill: none; stroke: rgb(38, 50, 56); stroke-linecap: round; stroke-linejoin: round; transform-origin: 390.4px 178.825px;" id="ely1hvec4jbtb" class="animable"></line><path d="M379.39,170.88a8.14,8.14,0,0,1,5.84,6.8" style="fill: none; stroke: rgb(0, 255, 136); stroke-linecap: round; stroke-linejoin: round; transform-origin: 382.31px 174.28px;" id="elrzbahrleiaj" class="animable"></path><polygon points="385.59 179.8 386.67 177.41 383.93 177.77 385.59 179.8" style="fill: none; stroke: rgb(0, 255, 136); stroke-miterlimit: 10; transform-origin: 385.3px 178.605px;" id="elnt2vqov8yp" class="animable"></polygon><path d="M401.1,170.88a8.14,8.14,0,0,0-5.84,6.8" style="fill: none; stroke: rgb(0, 255, 136); stroke-linecap: round; stroke-linejoin: round; transform-origin: 398.18px 174.28px;" id="elwuxa0okrj8r" class="animable"></path><polygon points="394.89 179.8 393.82 177.41 396.56 177.77 394.89 179.8" style="fill: none; stroke: rgb(0, 255, 136); stroke-miterlimit: 10; transform-origin: 395.19px 178.605px;" id="elqvgdctgrdzf" class="animable"></polygon><path d="M332.92,240.33a8.16,8.16,0,0,1-7.32,0,1.93,1.93,0,0,1,0-3.41l.06,0" style="fill: none; stroke: rgb(0, 255, 136); stroke-linecap: round; stroke-linejoin: round; transform-origin: 328.747px 239.058px;" id="el3cdvme73zrp" class="animable"></path><polygon points="327.92 236.47 325.58 235.28 325.82 238.04 327.92 236.47" style="fill: none; stroke: rgb(0, 255, 136); stroke-miterlimit: 10; transform-origin: 326.75px 236.66px;" id="elwvzoq2xt8k" class="animable"></polygon><path d="M128.51,196.71v22.63H127V196.71Z" style="fill: rgb(38, 50, 56); transform-origin: 127.755px 208.025px;" id="elpia5c5ng459" class="animable"></path><path d="M132.46,219.34H131.1V196.71H133l6.79,19.11V196.71h1.36v22.63h-1.65l-7.08-20.18Z" style="fill: rgb(38, 50, 56); transform-origin: 136.125px 208.025px;" id="elxeqfeq3qekm" class="animable"></path><path d="M153.28,202.17v.49h-1.43v-.59c0-2.39-.9-4.2-3.36-4.2s-3.36,1.78-3.36,4.17c0,5.5,8.18,5.6,8.18,11.84,0,3.26-1.42,5.65-4.88,5.65s-4.89-2.39-4.89-5.65v-1.17H145V214c0,2.43.93,4.17,3.42,4.17s3.43-1.74,3.43-4.17c0-5.43-8.18-5.53-8.18-11.83,0-3.4,1.49-5.59,4.82-5.63S153.28,198.91,153.28,202.17Z" style="fill: rgb(38, 50, 56); transform-origin: 148.425px 208.035px;" id="elzq80mzofa9" class="animable"></path><path d="M159.61,219.34V198.07H155v-1.36h10.7v1.36H161.1v21.27Z" style="fill: rgb(38, 50, 56); transform-origin: 160.35px 208.025px;" id="elfx8z7mtpk6c" class="animable"></path><path d="M172.35,196.71c3.46,0,4.85,1.91,4.85,5.11v2c0,2.65-1,4.17-3.27,4.69,2.33.51,3.27,2.16,3.27,4.62v3.52a5,5,0,0,0,.55,2.72H176.2a5.3,5.3,0,0,1-.49-2.72v-3.55c0-3-1.65-3.85-4.23-3.85h-2.36v10.12h-1.49V196.71Zm-.84,11.15c2.65,0,4.2-.74,4.2-3.78V202c0-2.43-.94-3.88-3.39-3.88h-3.2v9.79Z" style="fill: rgb(38, 50, 56); transform-origin: 172.69px 208.04px;" id="elgm4naopaa0w" class="animable"></path><path d="M181.53,213.88c0,2.42.91,4.3,3.4,4.3s3.39-1.88,3.39-4.3V196.71h1.39v17.1c0,3.23-1.36,5.72-4.82,5.72S180,217,180,213.81v-17.1h1.49Z" style="fill: rgb(38, 50, 56); transform-origin: 184.855px 208.12px;" id="els3k2ru3kclc" class="animable"></path><path d="M201.93,202.24v1.87h-1.42v-2c0-2.43-.94-4.27-3.43-4.27s-3.43,1.84-3.43,4.27v11.77c0,2.42.94,4.23,3.43,4.23s3.43-1.81,3.43-4.23v-2.68h1.42v2.58c0,3.27-1.42,5.72-4.88,5.72s-4.88-2.45-4.88-5.72V202.24c0-3.27,1.42-5.73,4.88-5.73S201.93,199,201.93,202.24Z" style="fill: rgb(38, 50, 56); transform-origin: 197.05px 208.005px;" id="el73psove7nly" class="animable"></path><path d="M208.27,219.34V198.07h-4.63v-1.36h10.71v1.36h-4.6v21.27Z" style="fill: rgb(38, 50, 56); transform-origin: 208.995px 208.025px;" id="el6zxhluw4w5l" class="animable"></path><path d="M217.77,196.71v22.63h-1.49V196.71Z" style="fill: rgb(38, 50, 56); transform-origin: 217.025px 208.025px;" id="elqtdautvc06" class="animable"></path><path d="M220.26,202.24c0-3.3,1.52-5.73,5-5.73s5,2.43,5,5.73v11.57c0,3.3-1.52,5.72-5,5.72s-5-2.42-5-5.72Zm1.49,11.67c0,2.46,1,4.27,3.46,4.27s3.52-1.81,3.52-4.27V202.14c0-2.46-1-4.27-3.52-4.27s-3.46,1.81-3.46,4.27Z" style="fill: rgb(38, 50, 56); transform-origin: 225.26px 208.02px;" id="el18j1sn2ctbgj" class="animable"></path><path d="M234,219.34h-1.35V196.71h1.94l6.79,19.11V196.71h1.35v22.63h-1.65L234,199.16Z" style="fill: rgb(38, 50, 56); transform-origin: 237.69px 208.025px;" id="ellvvwieu70jc" class="animable"></path><path d="M137.78,250.57l3.5-23.18h7.14V260h-4.85V236.62L140,260h-4.85L131.34,237V260h-4.47V227.39H134Z" style="fill: rgb(38, 50, 56); transform-origin: 137.645px 243.695px;" id="elohvfb1dhf2" class="animable"></path><path d="M168.75,260h-5.18l-.88-5.92h-6.3L155.5,260h-4.71L156,227.39h7.51ZM157,249.68h5l-2.47-16.51Z" style="fill: rgb(38, 50, 56); transform-origin: 159.77px 243.695px;" id="elk3az7zi2ms" class="animable"></path><path d="M175.7,236.39V260h-4.62V227.39h6.44l5.27,19.54V227.39h4.57V260h-5.27Z" style="fill: rgb(38, 50, 56); transform-origin: 179.22px 243.695px;" id="elx3my7jj4qt" class="animable"></path><path d="M195.94,227.39v25.19c0,2.33,1,3.17,2.66,3.17s2.66-.84,2.66-3.17V227.39h4.85v24.86c0,5.22-2.61,8.21-7.65,8.21s-7.65-3-7.65-8.21V227.39Z" style="fill: rgb(38, 50, 56); transform-origin: 198.46px 243.925px;" id="el4v0qvz99dg6" class="animable"></path><path d="M226.21,260H221l-.89-5.92h-6.3L213,260h-4.71l5.22-32.65H221Zm-11.7-10.36h4.94L217,233.17Z" style="fill: rgb(38, 50, 56); transform-origin: 217.25px 243.675px;" id="elrcws2wl48h" class="animable"></path><path d="M228.59,227.39h5.13v28h8.45V260H228.59Z" style="fill: rgb(38, 50, 56); transform-origin: 235.38px 243.695px;" id="el535726hjkjr" class="animable"></path></g><defs>     <filter id="active" height="200%">         <feMorphology in="SourceAlpha" result="DILATED" operator="dilate" radius="2"></feMorphology>                <feFlood flood-color="#32DFEC" flood-opacity="1" result="PINK"></feFlood>        <feComposite in="PINK" in2="DILATED" operator="in" result="OUTLINE"></feComposite>        <feMerge>            <feMergeNode in="OUTLINE"></feMergeNode>            <feMergeNode in="SourceGraphic"></feMergeNode>        </feMerge>    </filter>    <filter id="hover" height="200%">        <feMorphology in="SourceAlpha" result="DILATED" operator="dilate" radius="2"></feMorphology>                <feFlood flood-color="#ff0000" flood-opacity="0.5" result="PINK"></feFlood>        <feComposite in="PINK" in2="DILATED" operator="in" result="OUTLINE"></feComposite>        <feMerge>            <feMergeNode in="OUTLINE"></feMergeNode>            <feMergeNode in="SourceGraphic"></feMergeNode>        </feMerge>            <feColorMatrix type="matrix" values="0   0   0   0   0                0   1   0   0   0                0   0   0   0   0                0   0   0   1   0 "></feColorMatrix>    </filter></defs><defs><clipPath id="freepik--clip-path--inject-61"><path d="M121.05,229.84c-.21.61-5,11.06-5.23,11.68-2.66,8.56-2.43,13.71-1,22.59l.19,1.23c.64,16.62-3.9,25.07-12.46,39.33l-1.73,2.89-1.13,1.68h0l-2.53,3.35s.58,3.22-.88,4.52c-5.39,4.75-8.06,5.62-8.86,13.95l-.49,28.27-1.37-.14c-2.88-.3-5.72-.67-8.49-1.13l-2.37-.41a95.63,95.63,0,0,1-10.52-2.57c-.39-.12-.78-.24-1.16-.38-1.16-.38-2.31-.78-3.42-1.21-.38-.14-.76-.29-1.13-.45-1-.39-1.9-.8-2.82-1.22L55,351.5c-1.35-.65-2.68-1.34-4-2.09-.54-.31-1.06-.62-1.59-1,.36-2,.72-3.91,1.07-5.8a393.78,393.78,0,0,0,6.38-60.11L58,243.44a40.84,40.84,0,0,1,11-25.12l24.74-25.73c.64-.67,2.88-1,3.74-1l0,47.54s6.72-22.53,9-28c5.58-13.6,15.23-10.75,17.43-5.8C125.35,208.54,121.2,229.41,121.05,229.84Z" style="fill:#fff"></path></clipPath><clipPath id="freepik--clip-path-2--inject-61"><path d="M392.53,432.06v-46.9l-.7-10.44s-6.31-9.1-5.91-19.15c.33-8.47,10.09-35.16,10.78-37.95.26-1,2.44-18.45,2.44-19.48s1-15.32,4.52-18.45,9.4-4.53,11.14,0,3.48,18.79,2.45,24-3.14,11.49-3.84,16a35.66,35.66,0,0,0,.36,10.09h15.66l2.77-8.7.71-17.41s-8.92-4.56-10.55-9v-4.21c.07-1.45.06-2.94,0-4.28v-4.61c3.1,1.5,23.59,11.51,25.51,14.07,2.09,2.79,3.48,13.93,3.48,13.93l2.76-6.91,0-.06s-8.71-14.26-9.4-16.69c0,0-7-1.74-10.09-5.58s-5.22-7.65-2.09-11.13,20.19,6.26,20.19,6.26l11.41,14.75,5.29,6.83s9.75,9.87,10.14,12.47c.45,2.94-3.88,15.72-3.88,15.72l-14.26,28.55c-.83,1.5-7.7,8.67-14.68,15.77-7.67,7.82-15.47,15.56-15.47,15.56l1.18,10.55a105.34,105.34,0,0,1-15.35,17.7c-1.85,1.69-3.75,3.34-5.72,5a178,178,0,0,1-18.88,13.66" style="fill:#fff"></path></clipPath></defs></svg>